<?xml version="1.0" encoding="iso-8859-1"?>
<!-- Generator: Adobe Illustrator 19.2.0, SVG Export Plug-In . SVG Version: 6.00 Build 0)  -->
<svg version="1.1" xmlns="http://www.w3.org/2000/svg" xmlns:xlink="http://www.w3.org/1999/xlink" x="0px" y="0px"
	 viewBox="0 0 600 600" enable-background="new 0 0 600 600" xml:space="preserve">
<g id="Layer_12">
	<g opacity="0.4">
		<path fill="#D9BA90" d="M233.2247467,542.7126465c31.7266998-0.1459961,28.7274323,8.7143555,0.9839783,8.7143555
			S206.2159424,542.8369141,233.2247467,542.7126465z"/>
		<path fill="#D9BA90" d="M58.7262535,535.6351929c43.5086327-3.4061279,57.0251656,3.0765381,39.1581917,2.3201294
			s-23.9946289,7.6784058-10.2695618,11.7051392c13.7251129,4.0267334,76.5904999,11.4653931,97.0311584-1.7103882
			c20.4406738-13.1756592,44.1646576-14.5122681,84.0362396-12.3148804
			c39.8716125,2.1973267,58.3548889-8.7897949,49.8258362-13.5819092c-8.5289917-4.7920532-43.93396-2.2932739-43.93396-2.2932739
			s8.2940369-2.4735107-3.6083069-5.1090698c-11.9024048-2.635498-43.0701752,0-80.4636536,0
			c0,0-96.8352432,1.3407593-144.4515076,1.3407593S15.2176218,539.0413818,58.7262535,535.6351929z M240.8346252,525.385437
			c11.2840729,0.9251709,4.9867554,3.4539185-12.6044006,2.2263794
			C210.6390686,526.3842163,222.6632996,523.895752,240.8346252,525.385437z M128.8818512,534.3033447
			c0.4910431-3.9908447,19.1179352,0.3729248,22.5713806-1.8088989c3.4534454-2.1819458,14.0106812-3.6502075,30.2148285-3.0387573
			c9.8204956,0.3704834,2.7061462,3.6057129-11.1683197,3.8270874c-13.8744354,0.2214355-10.682724,4.6407471-17.5572205,5.8683472
			C146.0680695,540.3786621,128.3908234,538.2941895,128.8818512,534.3033447z"/>
	</g>
</g>
<g id="BACKGROUND">
	<g>
		<path fill="#F1D5A7" d="M548.937561,434.0001526c-10.6953735,42.3699646-62.5265503-7.2016296-63.3492737,33.9342346
			c-0.8226929,41.1358643-81.0376587,43.6040039-125.0530396,38.2563477s-25.092865-41.1358643-59.2356567-43.6040039
			c-34.1427612-2.4681702-83.0944519,8.7983093-101.1942291-41.3874512s-10.6953278-144.7495117-9.4612579-195.7579803
			c1.2340851-51.0084839,32.497345-23.4474487,33.3200684-61.29245c0.4113464-18.799118,5.1831055-33.5504456,17.6472931-44.8956909
			c0,0,0.0576019-0.0576019,0.1809692-0.1563187c1.8840637-1.6043091,18.2149811-14.8829803,39.6878815-12.4148331
			c22.8386536,2.6162415,29.914032,11.2877121,32.5549316,35.1382751
			c2.6409302,23.8505707,42.295929,22.0735321,39.7373047-15.7797089
			c-2.5587158-37.8121109,67.0020447-29.9386978,88.1705933-28.0052795
			c15.0557251,2.8959274,25.8251038,7.1987762,28.0135193,13.4596405
			c8.6385498,24.6815186,0.411377,56.7675018,18.9225159,55.9447784
			c18.5111389-0.8227081,54.7107239-2.0567932,59.6470032,37.4336548S559.6328735,391.6302185,548.937561,434.0001526z"/>
		<path fill="#F5DEBB" d="M279.34729,158.5144196c-41.7082367,4.3816376-56.2360382,50.532547-56.2360382,146.0432892
			s0.4616241,141.5461426,73.3853912,141.5461426s48.8839111-170.7641602,44.5360718-215.283844
			C336.684906,186.3003235,316.2125854,154.641571,279.34729,158.5144196z"/>
		<path fill="#F5DEBB" d="M419.2936096,161.6675568c-44.9275513,0-35.0756226,148.0982513-35.0756226,220.7858124
			s62.1038208,53.3022156,115.510376,53.3022156s25.3623352-192.4648895,16.6666565-219.5108032
			c-8.6956177-27.0459137-53.4754333-15.0775299-62.9696045-17.8008423
			C443.9312744,195.7206116,456.974762,161.6675568,419.2936096,161.6675568z"/>
	</g>
</g>
<g id="ROAD_MAPPING">
	<g>
		<path fill="#6F7D87" d="M249.2533112,283.9248962c-17.6374359,2.8504944-23.1463318,20.79245-5.8846588,20.4001465
			s48.2542114-5.8846436,23.1463318,14.1231995s-67.869751,50.6080627-63.1620331,71.7928467
			c4.7077332,21.1847839,19.2232361,20.007843,45.9003601,21.1847839s44.3311005,18.4385986,29.8156281,33.7387085
			c-14.5155029,15.3001404-56.4927521,35.7002869-53.3542633,46.6849976
			c3.1384735,10.9846802,20.007843,10.9846802,50.2157745-8.6308594
			c30.2079163-19.615509,68.2620544-49.4311218,120.0470581-52.5696106s59.2389221-3.5308228,58.4543152-15.6924438
			c-0.7846375-12.1616211-11.7693176-18.8309021-58.8466187-15.6924133s-72.5774841-1.1769409-56.4927368-24.7155762
			c16.0847473-23.5386658,81.6006165-44.3311157,141.231842-49.0388489s85.5237732-6.2769775,88.6622009-16.0847473
			c3.1384888-9.8077698-73.7179871-25.9903564-179.2859802,11.3770142c0,0,15.6924438-19.2232056-1.1769104-31.7771606
			s-44.4515991,5.9721985-23.5386353,11.7693176c18.3238831,5.0794373,4.8258972,26.3315735-25.3291931,37.8192139
			c-28.796936,10.9702759-66.0539856,37.6220703-42.2171021,54.8535461c0,0-107.4243011,4.2279968-25.039032-55.7955627
			S288.0920715,277.6479187,249.2533112,283.9248962z"/>
		<g>
			<g>
				<g>
					<path fill="#D3E7F3" d="M246.1948242,488.2324219c-0.5795898,0-1.1542969-0.2509766-1.5498047-0.734375
						c-0.6987305-0.8554688-0.5717773-2.1152344,0.2832031-2.8144531c0.0473633-0.0380859,4.8154297-3.9316406,12.1298828-9.6992188
						c0.8681641-0.6826172,2.1259766-0.5351563,2.8085938,0.3320313c0.684082,0.8671875,0.5351563,2.125-0.3320313,2.8085938
						c-7.284668,5.7441406-12.0283203,9.6181641-12.0751953,9.65625
						C247.0878906,488.0849609,246.6401367,488.2324219,246.1948242,488.2324219z"/>
				</g>
				<g>
					<path fill="#D3E7F3" d="M274.0791016,466.3164063c-0.6025391,0-1.1987305-0.2714844-1.5922852-0.7880859
						c-0.6694336-0.8779297-0.5-2.1328125,0.378418-2.8027344c8.5268555-6.4990234,16.5307617-12.4033203,23.7890625-17.5507813
						c0.9008789-0.6396484,2.1499023-0.4257813,2.7880859,0.4746094c0.6391602,0.9013672,0.4267578,2.1494141-0.4746094,2.7890625
						c-7.2207031,5.1201172-15.1870117,10.9980469-23.6777344,17.46875
						C274.9277344,466.1826172,274.5019531,466.3164063,274.0791016,466.3164063z M314.3271484,437.5644531
						c-0.65625,0-1.2998047-0.3222656-1.6816406-0.9150391c-0.5996094-0.9277344-0.3330078-2.1660156,0.5947266-2.7646484
						c3.3652344-2.1738281,6.515625-4.1201172,9.3652344-5.7841797c4.6201172-2.7001953,10.5185547-5.1611328,17.5302734-7.3144531
						c1.0556641-0.3203125,2.1748047,0.2695313,2.4990234,1.3251953s-0.2695313,2.1748047-1.3251953,2.4990234
						c-6.7177734,2.0625-12.3320313,4.3984375-16.6865234,6.9433594c-2.7978516,1.6347656-5.8974609,3.5498047-9.2128906,5.6904297
						C315.0751953,437.4609375,314.6992188,437.5644531,314.3271484,437.5644531z M360.1357422,420.015625
						c-0.9423828,0-1.78125-0.6679688-1.9628906-1.6279297c-0.2060547-1.0849609,0.5068359-2.1318359,1.5927734-2.3369141
						c8.7851563-1.6650391,18.6708984-3.0449219,29.3828125-4.1015625c1.0966797-0.109375,2.078125,0.6953125,2.1865234,1.7939453
						c0.1083984,1.0996094-0.6943359,2.078125-1.7939453,2.1865234c-10.59375,1.0449219-20.3613281,2.4082031-29.03125,4.0507813
						C360.3847656,420.0048828,360.2587891,420.015625,360.1357422,420.015625z"/>
				</g>
				<g>
					<path fill="#D3E7F3" d="M409.2177734,414.4169922c-1.0537109,0-1.9355469-0.8242188-1.9951172-1.8886719
						c-0.0615234-1.1035156,0.7832031-2.046875,1.8857422-2.1083984c9.3173828-0.5175781,15.5136719-0.5888672,15.5751953-0.5898438
						c0.0078125,0,0.0146484,0,0.0214844,0c1.0947266,0,1.9882813,0.8808594,2,1.9785156
						c0.0117188,1.1044922-0.8740234,2.0097656-1.9785156,2.0214844c-0.0605469,0.0009766-6.1757813,0.0712891-15.3955078,0.5839844
						C409.2929688,414.4160156,409.2548828,414.4169922,409.2177734,414.4169922z"/>
				</g>
			</g>
			<g>
				<g>
					<path fill="#D3E7F3" d="M342.0712891,424.2929688c-0.2744141,0-0.5527344-0.0566406-0.8193359-0.1757813
						c-0.2695313-0.1210938-6.6689453-3.0263672-13.5429688-8.4453125
						c-0.8671875-0.6835938-1.0166016-1.9404297-0.3320313-2.8085938c0.6835938-0.8671875,1.9414063-1.0146484,2.8085938-0.3320313
						c6.4677734,5.0976563,12.6464844,7.9101563,12.7080078,7.9384766c1.0068359,0.4541016,1.4550781,1.6376953,1.0019531,2.6445313
						C343.5615234,423.8544922,342.8330078,424.2929688,342.0712891,424.2929688z"/>
				</g>
				<g>
					<path fill="#D3E7F3" d="M316.0771484,401.1386719c-0.7353516,0-1.4423828-0.40625-1.7919922-1.1083984
						c-2.0878906-4.1894531-3.1464844-8.5361328-3.1464844-12.9169922c0-1.5146484,0.1269531-3.0537109,0.3779297-4.5761719
						c0.5771484-3.5068359,2.8759766-7.4394531,6.8339844-11.6904297c0.7548828-0.8076172,2.0195313-0.8505859,2.8271484-0.1005859
						c0.8076172,0.7529297,0.8535156,2.0185547,0.1005859,2.8271484c-3.3632813,3.6113281-5.3740234,6.9365234-5.8144531,9.6132813
						c-0.2158203,1.3085938-0.3251953,2.6298828-0.3251953,3.9267578c0,3.7568359,0.9169922,7.5019531,2.7265625,11.1337891
						c0.4921875,0.9882813,0.0908203,2.1894531-0.8984375,2.6816406
						C316.6806641,401.0712891,316.3759766,401.1386719,316.0771484,401.1386719z M335.1777344,361.6210938
						c-0.6425781,0-1.2734375-0.3085938-1.6601563-0.8818359c-0.6171875-0.9160156-0.3759766-2.1591797,0.5400391-2.7763672
						c7.3037109-4.9248047,15.9824219-9.8398438,25.7949219-14.6064453
						c0.9902344-0.4804688,2.1904297-0.0693359,2.6728516,0.9248047c0.4824219,0.9931641,0.0683594,2.1904297-0.9248047,2.6728516
						c-9.6435547,4.6855469-18.1582031,9.5048828-25.3066406,14.3251953
						C335.9511719,361.5107422,335.5625,361.6210938,335.1777344,361.6210938z M378.9042969,339.0556641
						c-0.7880859,0-1.5351563-0.46875-1.8515625-1.2431641c-0.4189453-1.0224609,0.0703125-2.1904297,1.0927734-2.6083984
						c8.8564453-3.625,18.1962891-7.0146484,27.7607422-10.0751953c1.0537109-0.3349609,2.1767578,0.2441406,2.5146484,1.2958984
						c0.3359375,1.0517578-0.2441406,2.1777344-1.2958984,2.5146484
						c-9.4648438,3.0283203-18.7050781,6.3818359-27.4638672,9.9658203
						C379.4130859,339.0068359,379.15625,339.0556641,378.9042969,339.0556641z M425.6083984,323.4355469
						c-0.8837891,0-1.6923828-0.5908203-1.9316406-1.4853516c-0.2851563-1.0664063,0.3496094-2.1630859,1.4169922-2.4482422
						c9.4707031-2.5292969,19.1484375-4.7509766,28.7636719-6.6044922c1.0869141-0.2099609,2.1337891,0.5009766,2.3427734,1.5849609
						c0.2089844,1.0849609-0.5009766,2.1337891-1.5849609,2.3427734c-9.5244141,1.8359375-19.109375,4.0361328-28.4902344,6.5419922
						C425.9521484,323.4130859,425.7792969,323.4355469,425.6083984,323.4355469z M473.8574219,313.5683594
						c-0.9785156,0-1.8349609-0.7197266-1.9765625-1.7177734c-0.15625-1.0927734,0.6035156-2.1064453,1.6972656-2.2617188
						c9.8017578-1.3994141,19.6777344-2.4375,29.3535156-3.0849609c1.1044922-0.1015625,2.0556641,0.7587891,2.1289063,1.8613281
						c0.0742188,1.1025391-0.7597656,2.0556641-1.8613281,2.1289063
						c-9.5771484,0.6416016-19.3525391,1.6689453-29.0566406,3.0537109
						C474.046875,313.5615234,473.9521484,313.5683594,473.8574219,313.5683594z"/>
				</g>
				<g>
					<path fill="#D3E7F3" d="M538.4179688,309.8476563c-0.0214844,0-0.0429688,0-0.0644531-0.0009766
						c-5.0654297-0.1601563-10.25-0.2099609-15.4101563-0.1425781c-1.0644531,0.0039063-2.0117188-0.8701172-2.0253906-1.9746094
						s0.8701172-2.0107422,1.9746094-2.0253906c5.21875-0.0634766,10.4619141-0.0175781,15.5878906,0.1445313
						c1.1035156,0.0351563,1.9707031,0.9580078,1.9355469,2.0625
						C540.3818359,308.9931641,539.4931641,309.8476563,538.4179688,309.8476563z"/>
				</g>
			</g>
			<g>
				<g>
					<path fill="#D3E7F3" d="M383.8896484,307.8085938c-0.9404297,0-1.7783203-0.6660156-1.9619141-1.6230469
						c-1.421875-7.4121094-7.6113281-10.9228516-7.6738281-10.9570313
						c-0.9658203-0.5361328-1.3144531-1.7539063-0.7783203-2.7197266c0.5361328-0.9648438,1.7529297-1.3125,2.7197266-0.7783203
						c0.3212891,0.1787109,7.890625,4.4726563,9.6601563,13.7011719c0.2080078,1.0849609-0.5019531,2.1328125-1.5869141,2.3408203
						C384.140625,307.796875,384.0146484,307.8085938,383.8896484,307.8085938z"/>
				</g>
				<g>
					<path fill="#D3E7F3" d="M358.7216797,348.140625c-0.5820313,0-1.1582031-0.2529297-1.5537109-0.7392578
						c-0.6962891-0.8574219-0.5654297-2.1171875,0.2919922-2.8134766c4.2939453-3.4853516,8.09375-6.9355469,11.2939453-10.2539063
						c0.7675781-0.7958984,2.0341797-0.8164063,2.8271484-0.0517578c0.7958984,0.7666016,0.8183594,2.0322266,0.0517578,2.8271484
						c-3.3115234,3.4355469-7.2324219,6.9960938-11.6513672,10.5839844
						C359.6103516,347.9941406,359.1650391,348.140625,358.7216797,348.140625z"/>
				</g>
			</g>
			<g>
				<g>
					<path fill="#D3E7F3" d="M252.7875977,292.6074219c-1.0576172,0-1.940918-0.8291016-1.9960938-1.8974609
						c-0.0566406-1.1025391,0.7915039-2.0429688,1.8945313-2.0996094c0.0722656-0.0048828,7.3374023-0.3701172,15.6801758-0.0507813
						c1.1035156,0.0429688,1.9638672,0.9716797,1.921875,2.0751953c-0.0410156,1.078125-0.9277344,1.9238281-1.9970703,1.9238281
						c-0.0258789,0-0.0517578,0-0.078125-0.0019531c-8.1635742-0.3125-15.2504883,0.0449219-15.3208008,0.0478516
						C252.8569336,292.6064453,252.8217773,292.6074219,252.7875977,292.6074219z"/>
				</g>
				<g>
					<path fill="#D3E7F3" d="M282.7631836,405.7666016c-0.0356445,0-0.0712891-0.0009766-0.1074219-0.0029297
						c-12.0683594-0.6367188-22.5932617-1.6962891-31.2827148-3.1484375
						c-1.0893555-0.1816406-1.8251953-1.2128906-1.6430664-2.3027344c0.1821289-1.0888672,1.2109375-1.8242188,2.3022461-1.6425781
						c8.5415039,1.4277344,18.9155273,2.4697266,30.8344727,3.0996094c1.1030273,0.0576172,1.9501953,0.9990234,1.8916016,2.1025391
						C284.7021484,404.9394531,283.8193359,405.7666016,282.7631836,405.7666016z M231.3408203,397.1171875
						c-0.2792969,0-0.5634766-0.0585938-0.8344727-0.1826172c-5.2758789-2.4267578-8.4868164-5.4042969-9.5424805-8.8496094
						c-0.3662109-1.1914063-0.5522461-2.4921875-0.5522461-3.8623047c0.0004883-4.4404297,1.875-9.6806641,5.7299805-16.0205078
						c0.5732422-0.9443359,1.8032227-1.2441406,2.7480469-0.6699219c0.9438477,0.5742188,1.2436523,1.8046875,0.6699219,2.7480469
						c-3.4155273,5.6162109-5.1474609,10.3076172-5.1479492,13.9423828c0,0.9716797,0.1264648,1.8769531,0.3759766,2.6884766
						c0.7080078,2.3105469,3.1943359,4.4589844,7.390625,6.3886719c1.003418,0.4619141,1.4428711,1.6494141,0.980957,2.6533203
						C232.8222656,396.6855469,232.0981445,397.1171875,231.3408203,397.1171875z M240.6225586,354.4042969
						c-0.4682617,0-0.9384766-0.1630859-1.3178711-0.4960938c-0.8305664-0.7285156-0.9130859-1.9921875-0.1845703-2.8232422
						c5.9223633-6.7509766,13.1088867-14.0966797,21.9707031-22.4580078
						c0.8046875-0.7568359,2.0698242-0.7216797,2.8271484,0.0830078c0.7583008,0.8027344,0.7211914,2.0683594-0.0820313,2.8271484
						c-8.7695313,8.2734375-15.8706055,15.5302734-21.7089844,22.1865234
						C241.7314453,354.1738281,241.1787109,354.4042969,240.6225586,354.4042969z M278.1005859,317.8164063
						c-0.5517578,0-1.1010742-0.2265625-1.4960938-0.671875c-0.7338867-0.8251953-0.6591797-2.0898438,0.1669922-2.8232422
						c3.0224609-2.6855469,5.8417969-5.1582031,8.3457031-7.3544922l3.152832-2.7685547
						c3.2631836-2.8740234,3.7504883-4.5830078,3.7504883-5.3457031c0-1.4589844-1.9975586-2.5771484-3.6733398-3.2578125
						c-1.0229492-0.4150391-1.515625-1.5820313-1.1000977-2.6054688c0.4160156-1.0224609,1.5854492-1.5146484,2.605957-1.0996094
						c4.0922852,1.6621094,6.1674805,4.0048828,6.1674805,6.9628906c0,2.5908203-1.6708984,5.3212891-5.1074219,8.3476563
						l-3.1577148,2.7734375c-2.4990234,2.1914063-5.3115234,4.6591797-8.3276367,7.3378906
						C279.046875,317.6503906,278.5727539,317.8164063,278.1005859,317.8164063z"/>
				</g>
				<g>
					<path fill="#D3E7F3" d="M309.6923828,406.4492188c-1.7880859,0-3.7744141-0.0087891-5.9199219-0.0322266
						c-1.1044922-0.0117188-1.9902344-0.9169922-1.9785156-2.0214844c0.0117188-1.0976563,0.9052734-1.9785156,2-1.9785156
						c0.0068359,0,0.0146484,0,0.0214844,0c9.1318359,0.1005859,15.3623047-0.0634766,15.4228516-0.0644531
						c1.1455078-0.0449219,2.0234375,0.8408203,2.0527344,1.9453125s-0.8417969,2.0234375-1.9453125,2.0527344
						C319.2978516,406.3525391,315.5791016,406.4492188,309.6923828,406.4492188z"/>
				</g>
			</g>
		</g>
		<g>
			<path fill="#E09433" d="M445.9134521,334.0960999c0,0,11.1398621-5.5699158,21.296814,6.552887
				s15.399231,14.9077454,25.3923645,11.6313171c0,0-0.4914856,12.2866211-15.0715942,12.941925
				c-14.5801392,0.6552734-16.3821716-13.9248352-36.3684082-1.802063L445.9134521,334.0960999z"/>
			<g>
				<path fill="#5B8A72" d="M444.8654175,326.7601013l4.0400391,0.6699829l-14.3300171,86.1099854
					c-0.3699951,2.2200928-2.4800415,3.7299805-4.710022,3.3599854s-3.7299805-2.4799805-3.3599854-4.7099609l14.3300171-86.1000366
					L444.8654175,326.7601013z"/>
				<path fill="#4A775F" d="M440.8354492,326.0900574l4.0299683,0.6700439l-15,90.1399536
					c-2.2299805-0.3699951-3.7299805-2.4799805-3.3599854-4.7099609L440.8354492,326.0900574z"/>
			</g>
			<g>
				<path fill="#BA233E" d="M453.425415,326.7601013c0,4.7299805-3.8300171,8.5599976-8.5599976,8.5599976
					s-8.5599976-3.8300171-8.5599976-8.5599976c0-0.1900024,0.0100098-0.3699951,0.0200195-0.5500488
					c0.2799683-4.4699707,3.9899902-8.0099487,8.539978-8.0099487c2.8800049,0,5.4199829,1.4199829,6.9700317,3.5899658
					C452.8354492,323.1800842,453.425415,324.9000549,453.425415,326.7601013z"/>
				<path fill="#8F2429" d="M453.425415,326.7601013c0,4.7299805-3.8300171,8.5599976-8.5599976,8.5599976
					s-8.5599976-3.8300171-8.5599976-8.5599976c0-0.1900024,0.0100098-0.3699951,0.0200195-0.5500488
					c1.0899658,1.7700195,3.7199707,4.6100464,9.0700073,3.9700317c5.3699951-0.6400146,6.6300049-4.9500122,6.4400024-8.3900146
					C452.8354492,323.1800842,453.425415,324.9000549,453.425415,326.7601013z"/>
				<path fill="#CE5D79" d="M441.5572815,320.2102661c-4.3125,1.9303589-3.1590881,6.3182068,1.2636414,4.9191589
					C447.2436523,323.7304077,446.295929,318.0891418,441.5572815,320.2102661z"/>
			</g>
		</g>
		<g>
			<path fill="#E09433" d="M551.4335938,252.472229c0,0,7.4498291-3.7249298,14.2423706,4.3822632
				c6.7924805,8.1071777,10.2982788,9.969635,16.9812622,7.7785034c0,0-0.3286743,8.2167358-10.0792236,8.6549683
				s-10.9556274-9.3123169-24.3215332-1.2051392L551.4335938,252.472229z"/>
			<g>
				<path fill="#5B8A72" d="M550.7327271,247.5662231l2.7017822,0.4480591l-9.583252,57.5864868
					c-0.2474365,1.4846802-1.6585693,2.4944153-3.1498413,2.2469788c-1.491333-0.2474365-2.4944458-1.6584778-2.2470093-3.1498108
					l9.583252-57.5798035L550.7327271,247.5662231z"/>
				<path fill="#4A775F" d="M548.0376587,247.1181335l2.6950684,0.4480896l-10.031311,60.2815247
					c-1.491333-0.2474365-2.4944458-1.6584778-2.2470093-3.1498108L548.0376587,247.1181335z"/>
			</g>
			<g>
				<path fill="#BA233E" d="M556.4572754,247.5662231c0,3.1631927-2.5613403,5.7245483-5.7245483,5.7245483
					s-5.7245483-2.5613556-5.7245483-5.7245483c0-0.1270599,0.0067139-0.2474365,0.0134277-0.3678436
					c0.1871948-2.9893188,2.6682739-5.3566895,5.7111206-5.3566895c1.9260254,0,3.6246338,0.9496155,4.6612549,2.4008026
					C556.0627441,245.1720734,556.4572754,246.3223114,556.4572754,247.5662231z"/>
				<path fill="#8F2429" d="M556.4572754,247.5662231c0,3.1631927-2.5613403,5.7245483-5.7245483,5.7245483
					s-5.7245483-2.5613556-5.7245483-5.7245483c0-0.1270599,0.0067139-0.2474365,0.0134277-0.3678436
					c0.7288818,1.1837006,2.4877319,3.0829926,6.0655518,2.6549835c3.5912476-0.4280243,4.4338989-3.3103485,4.3068237-5.6108704
					C556.0627441,245.1720734,556.4572754,246.3223114,556.4572754,247.5662231z"/>
				<path fill="#CE5D79" d="M548.5203857,243.1859894c-2.8840332,1.2909393-2.1126709,4.2253418,0.8450928,3.2897186
					C552.3231812,245.5401001,551.6893921,241.7674866,548.5203857,243.1859894z"/>
			</g>
		</g>
		<g>
			<path fill="#E09433" d="M360.4534302,220.8912354c0,0,7.1711426-8.2598267,19.4836121-1.8307495
				c12.3124695,6.4290924,17.5018311,6.9295654,24.5121765,0.9160156c0,0,3.7254944,10.1364899-7.8873901,15.5625305
				c-11.6128845,5.4260559-17.9696045-5.8018799-30.120575,10.7456207L360.4534302,220.8912354z"/>
			<g>
				<path fill="#5B8A72" d="M357.1403503,215.2893219l3.5036926-0.8124237l17.2754211,74.6949463
					c0.4449463,1.9259644-0.7606506,3.8596497-2.6946716,4.3079224c-1.9339905,0.4482727-3.8596191-0.7606201-4.3078918-2.6946106
					l-17.2720947-74.6868591L357.1403503,215.2893219z"/>
				<path fill="#4A775F" d="M353.6448059,216.0982971l3.4955444-0.8089752l18.0844421,78.1904449
					c-1.9339905,0.4482727-3.8596191-0.7606201-4.3078918-2.6946106L353.6448059,216.0982971z"/>
			</g>
			<g>
				<path fill="#BA233E" d="M364.0874023,212.4159088c1.5877686,3.8387299-0.2349243,8.2327271-4.0736389,9.8204803
					c-3.8387451,1.5877533-8.2327271-0.2349243-9.8204956-4.0736542c-0.0637817-0.1542053-0.1160889-0.3036499-0.168396-0.453125
					c-1.2732544-3.7216949,0.549408-7.8400269,4.2420654-9.3673706c2.3373413-0.9667511,4.8753662-0.6669464,6.8617554,0.5738373
					C362.4068909,209.7084961,363.4630432,210.9063416,364.0874023,212.4159088z"/>
				<path fill="#8F2429" d="M364.0874023,212.4159088c1.5877686,3.8387299-0.2349243,8.2327271-4.0736389,9.8204803
					c-3.8387451,1.5877533-8.2327271-0.2349243-9.8204956-4.0736542c-0.0637817-0.1542053-0.1160889-0.3036499-0.168396-0.453125
					c1.4787598,1.0706177,4.5665283,2.4926758,8.693634,0.1773529c4.1433105-2.3220062,3.7191467-6.2428436,2.4101868-8.9708862
					C362.4068909,209.7084961,363.4630432,210.9063416,364.0874023,212.4159088z"/>
				<path fill="#CE5D79" d="M352.256897,211.0841217c-2.8519287,3.0142517-0.4429626,6.1881256,2.6767883,3.5681
					C358.0534668,212.0321808,355.3906555,207.7720184,352.256897,211.0841217z"/>
			</g>
		</g>
		<g>
			<path fill="#E09433" d="M240.4721222,238.6278534c0,0,5.2369385-6.0319977,14.2285156-1.3369598
				c8.9915924,4.6950378,12.7812653,5.0605316,17.9008026,0.6689453c0,0,2.7206421,7.4024811-5.7600403,11.365036
				c-8.4806519,3.9625397-13.1228638-4.2370148-21.9964752,7.8473358L240.4721222,238.6278534z"/>
			<g>
				<path fill="#5B8A72" d="M238.0526276,234.5368805l2.5586853-0.5932922l12.615921,54.5483246
					c0.3249512,1.4064941-0.5554962,2.818634-1.9678497,3.1459961c-1.4123688,0.3273926-2.8186188-0.5554504-3.1459961-1.967804
					l-12.6134796-54.54245L238.0526276,234.5368805z"/>
				<path fill="#4A775F" d="M235.4999084,235.127655l2.5527191-0.5907745l13.2067566,57.1010284
					c-1.4123688,0.3273926-2.8186188-0.5554504-3.1459961-1.967804L235.4999084,235.127655z"/>
			</g>
			<g>
				<path fill="#BA233E" d="M243.125946,232.4384766c1.1595154,2.80336-0.1715698,6.012207-2.9749146,7.1717224
					c-2.80336,1.1595001-6.012207-0.1715698-7.1717224-2.9749298c-0.0465698-0.1126099-0.0847626-0.2217407-0.1229706-0.3309021
					c-0.9298401-2.7178802,0.4012146-5.7254333,3.0979004-6.8408051c1.7069092-0.7060089,3.5603943-0.4870758,5.0110168,0.4190521
					C241.8986816,230.4613037,242.6699829,231.3360748,243.125946,232.4384766z"/>
				<path fill="#8F2429" d="M243.125946,232.4384766c1.1595154,2.80336-0.1715698,6.012207-2.9749146,7.1717224
					c-2.80336,1.1595001-6.012207-0.1715698-7.1717224-2.9749298c-0.0465698-0.1126099-0.0847626-0.2217407-0.1229706-0.3309021
					c1.079895,0.7818604,3.3348541,1.8203583,6.3488007,0.1295319c3.0257874-1.6957245,2.7160187-4.5590515,1.7601166-6.5512848
					C241.8986816,230.4613037,242.6699829,231.3360748,243.125946,232.4384766z"/>
				<path fill="#CE5D79" d="M234.4863434,231.4658966c-2.0827179,2.2012482-0.3234863,4.5190735,1.9548187,2.6057129
					S236.7748718,229.0471344,234.4863434,231.4658966z"/>
			</g>
		</g>
	</g>
</g>
<g id="EFFECT">
	<g>
		<g>
			<path fill="#DDB987" d="M315.6145935,281.1479187c3.0000305-2.5444031,5.3194885-6.0620422,7.627594-9.2363586
				c2.2580566-3.1054993,4.8714294-6.5375977,6.068573-10.2049561c0.2710266-0.8302612-0.7996521-1.3139954-1.3771362-0.8016357
				c-2.7408752,2.4317932-4.7988281,5.8753052-6.8497925,8.9017334c-2.2826538,3.3683167-5.0067749,6.6879578-6.6880798,10.4007874
				C314.0324707,281.0097351,314.9211426,281.7360535,315.6145935,281.1479187L315.6145935,281.1479187z"/>
		</g>
		<g>
			<path fill="#FFFFFF" d="M332.0610046,258.9337769c0.2947693-0.165741,0.5804749-0.3796997,0.8019104-0.6355591
				c0.1300964-0.1502686,0.2554321-0.3117981,0.3090515-0.506897c0.0459595-0.1672058-0.011261-0.3434448,0.0190735-0.5017395
				c0.0838928-0.4377747-0.2939453-0.9810486-0.7948608-0.7948608c-0.3841553,0.1427917-0.6957092,0.1316833-0.9956665,0.4675903
				c-0.2634277,0.2949524-0.4309998,0.6625061-0.5639648,1.0301514
				C330.57901,258.7046509,331.4660645,259.2682495,332.0610046,258.9337769L332.0610046,258.9337769z"/>
		</g>
		<g>
			<path fill="#DDB987" d="M352.2863464,193.5291901c-0.2020874-1.7171326-0.9972229-3.4179535-1.7661133-4.9542542
				c-0.3403625-0.6800385-1.3008728-0.8714447-1.9269104-0.5052643c-0.7158203,0.4186859-0.8158264,1.2293243-0.5052795,1.9269257
				c0.6469727,1.4532318,1.4155579,3.0694122,2.5300598,4.2236023
				C351.1600952,194.7814941,352.3884583,194.3968506,352.2863464,193.5291901L352.2863464,193.5291901z"/>
		</g>
		<g>
			<path fill="#FFFFFF" d="M346.4820251,182.7686768c-0.9257202-5.9450989-4.0792236-11.8713379-6.5445557-17.3390808
				c-2.7472534-6.0929413-5.740448-12.0904083-9.0151672-17.9172516c-0.8658752-1.5406799-3.1983643-0.1706543-2.3659973,1.3829956
				c3.0171509,5.6317596,5.9484253,11.290741,8.6236572,17.0949554c2.6203613,5.6851654,4.4588013,12.1195831,7.7961121,17.413269
				C345.5003967,184.23526,346.62146,183.6640625,346.4820251,182.7686768L346.4820251,182.7686768z"/>
		</g>
		<g>
			<path fill="#DDB987" d="M321.9293213,222.0606537c-1.0829468-0.2339783-2.1662292-0.5308228-3.2711182-0.6231079
				c-1.1446533-0.0955963-1.3795166,1.7416229-0.2704163,1.9981079c1.0750732,0.2486267,2.2044373,0.2863312,3.302124,0.3940125
				C322.6989746,223.9286652,322.9157104,222.2737732,321.9293213,222.0606537L321.9293213,222.0606537z"/>
		</g>
		<g>
			<path fill="#FFFFFF" d="M313.060791,219.1762085c-3.9555664-1.7696686-8.4040527-3.2258453-12.7933044-3.0273895
				c-1.2088318,0.0546722-1.6378784,2.0477295-0.3030701,2.2395172c4.2528076,0.6110229,8.2614136,1.0943909,12.3064575,2.6615753
				C313.3441772,221.465744,314.1211853,219.6506042,313.060791,219.1762085L313.060791,219.1762085z"/>
		</g>
		<g>
			<path fill="#DDB987" d="M321.6782227,240.2870026c-1.3497009,0.6921692-2.7662048,1.3218536-4.0384216,2.1490021
				c-1.098877,0.7144775-0.146759,2.3068542,1.0195313,1.7441711c1.3659058-0.6589966,2.6375122-1.5430145,3.9279785-2.3379059
				C323.579071,241.2313843,322.7076416,239.7590637,321.6782227,240.2870026L321.6782227,240.2870026z"/>
		</g>
		<g>
			<path fill="#FFFFFF" d="M308.7284546,245.0907593c-6.1112976,1.5857086-12.3225403,4.1060791-17.2243652,8.1708679
				c-1.0052185,0.8335876,0.2914124,2.4537506,1.3816223,1.7906494c5.3283997-3.2409058,10.3473816-6.1899414,16.3877869-7.9844666
				C310.5361938,246.6926727,310.0101013,244.758194,308.7284546,245.0907593L308.7284546,245.0907593z"/>
		</g>
		<g>
			<path fill="#FFFFFF" d="M335.6564941,204.210434c-6.1273804-4.2508545-10.9031067-11.2283478-17.5995789-14.5318146
				c-1.119812-0.5524292-2.4299011,0.8809509-1.4048462,1.8207245c2.9290466,2.6853638,6.129303,5.1257324,9.1097107,7.7754517
				c2.8006592,2.4899292,5.6245728,4.7950592,8.9372559,6.5736389
				C335.7872925,206.4327087,336.6516418,204.9008026,335.6564941,204.210434L335.6564941,204.210434z"/>
		</g>
		<g>
			<path fill="#DDB987" d="M312.1134644,184.9719849c-0.7451477-0.7968597-1.4613342-1.7643433-2.394043-2.3480835
				c-0.7901001-0.4944763-1.8404236,0.5066833-1.3062134,1.3062134c0.6137695,0.9185791,1.5906982,1.6042786,2.4130554,2.3290558
				C311.7015686,187.0305939,312.9199829,185.8344879,312.1134644,184.9719849L312.1134644,184.9719849z"/>
		</g>
		<g>
			<path fill="#FFFFFF" d="M376.1141968,180.7126312c0.5149536-1.7977295,0.5460815-3.728653,0.9728394-5.5582886
				c0.3987427-1.7095032-2.2680054-2.4321594-2.6237488-0.7233276c-0.4132385,1.9850616-0.7865906,4.3181458-0.1044312,6.2816162
				C374.6463318,181.5400391,375.8562012,181.6132965,376.1141968,180.7126312L376.1141968,180.7126312z"/>
		</g>
		<g>
			<path fill="#DDB987" d="M378.715332,167.3370667c2.5018616-8.2332458,4.8395081-16.5129395,7.0180054-24.8378448
				c0.4498901-1.7192535-2.1899719-2.4472961-2.6607361-0.7335205c-2.2797241,8.2995453-4.3988342,16.6392517-6.3528137,25.021225
				C376.4175415,168.0834656,378.3271484,168.6144867,378.715332,167.3370667L378.715332,167.3370667z"/>
		</g>
		<g>
			<path fill="#DDB987" d="M396.6885376,185.7214203c0.9607849-0.1070862,1.7888184-0.6118317,2.2629395-1.4747772
				c0.5352478-0.9741821,0.5515442-2.200058-0.3868408-2.9144592c-0.4838257-0.3683472-1.4146729-0.0010376-1.4987183,0.6097107
				c-0.0462036,0.3358917-0.0125732,0.5832367-0.0110474,0.8231201c0.0014648,0.2362213,0.0048218,0.3911743-0.0371704,0.5275879
				c-0.0799561,0.2598572-0.2511902,0.5106812-0.5762329,0.6033325
				C395.473999,184.1717682,395.6133118,185.8412628,396.6885376,185.7214203L396.6885376,185.7214203z"/>
		</g>
		<g>
			<path fill="#FFFFFF" d="M405.7290039,174.8695679c1.7163391-2.6929169,3.4196777-5.3884583,4.9360046-8.1999664
				c1.3370667-2.479126,3.0864868-5.0715332,3.6716309-7.8437042c0.1928711-0.9138489-1.0052795-1.8435364-1.7134094-0.9974213
				c-1.8263245,2.1821289-2.8406372,5.0430756-4.1269531,7.5734558c-1.4492188,2.8508606-2.8189697,5.740036-4.2563477,8.597229
				C403.7423401,174.9882202,405.1288147,175.8112793,405.7290039,174.8695679L405.7290039,174.8695679z"/>
		</g>
		<g>
			<path fill="#FFFFFF" d="M422.2646179,199.8222656c5.3194885-3.4904938,10.7088928-6.7979736,16.2457581-9.9323425
				c1.4194336-0.8035126,0.4526672-2.9621735-1.0910034-2.5878601c-0.5219116,0.1265564-0.8242798,0.2282715-1.289093,0.4559784
				c-0.278656,0.1365204-0.4346619,0.5415039-0.3390198,0.8331299c0.3114014,0.9496613,0.6515198,1.1694336,1.6281128,1.4414825
				c-0.1127319-0.8626251-0.2254944-1.725235-0.3382263-2.5878601c-5.6583862,3.0961151-11.0563049,6.6962738-16.0936584,10.7222595
				C420.0544128,198.9127808,421.2701416,200.4747925,422.2646179,199.8222656L422.2646179,199.8222656z"/>
		</g>
		<g>
			<path fill="#DDB987" d="M429.709198,222.0677643c2.0300903-0.2484894,4.0747986-0.404892,6.1202087-0.4222412
				c1.7974243-0.0152588,3.3912354,0.2167969,5.0499268-0.5746613c0.6039124-0.2881622,0.4619446-1.1009064,0-1.4229126
				c-2.9733887-2.0724945-8.2583618-0.5358429-11.4324646,0.4814148
				C428.4478149,220.4495544,428.5514526,222.2094727,429.709198,222.0677643L429.709198,222.0677643z"/>
		</g>
		<g>
			<path fill="#FFFFFF" d="M449.8414612,220.502243c7.4822083-0.157959,14.9524231-0.6035919,22.4229431-1.0357666
				c-0.3229065-0.7796173-0.6458435-1.5592194-0.9687805-2.3388367c-0.2841187,0.3667603-0.5682068,0.7335358-0.8523254,1.100296
				c-0.3659058,0.4723511-0.1786194,1.2705841,0.521637,1.2593689c0.4331665-0.0069427,0.8663025-0.0138855,1.299469-0.0208282
				c1.7698059-0.0283661,1.7544861-2.8456726,0-2.7401123c-7.4807739,0.450119-14.9627686,0.8876495-22.4229431,1.610611
				C448.4819946,218.4687347,448.4227295,220.532196,449.8414612,220.502243L449.8414612,220.502243z"/>
		</g>
		<g>
			<path fill="#DDB987" d="M426.8955383,241.9855347c0.662384,0.1171265,1.3100586,0.2104187,1.9508972,0.4226685
				c0.6180725,0.2046967,1.1736145,0.5796509,1.7479858,0.8807526c0.6643982,0.3482666,1.6816406-0.2422943,1.3796387-1.0606079
				c-0.7269287-1.969696-3.4664001-3.0392151-5.2844849-1.8188324
				C426.1334534,240.7827911,426.109436,241.8465271,426.8955383,241.9855347L426.8955383,241.9855347z"/>
		</g>
		<g>
			<path fill="#FFFFFF" d="M441.7053223,246.312973c6.4216003,4.5874481,13.7859802,7.528183,21.0341187,10.5405731
				c-0.2015076-0.7633057-0.4030457-1.5265961-0.6045532-2.2899017c-0.4806519,0.5812836-0.9203491,1.1371765-1.3804321,1.7336578
				c-0.4341736,0.5629272,0.2842712,1.3864746,0.908844,1.182251c0.6090088-0.1871643,1.2105103-0.395813,1.8045654-0.6260071
				c1.3170471-0.483429,1.274231-2.1431427,0-2.6422424c-7.1355591-2.7948456-14.3982544-5.2263489-20.8824768-9.4039764
				C441.6285706,244.1908569,440.8069763,245.6712189,441.7053223,246.312973L441.7053223,246.312973z"/>
		</g>
		<g>
			<path fill="#DDB987" d="M442.0491333,278.4589539c-5.725647-4.7744141-11.5533447-9.3865967-17.5646057-13.7970581
				c-1.4300842-1.0492554-2.8220825,1.3480835-1.3926392,2.3825378c5.8497009,4.2333984,11.6157837,8.5986023,17.2229614,13.1488342
				C441.5253906,281.1756287,443.2684937,279.475708,442.0491333,278.4589539L442.0491333,278.4589539z"/>
		</g>
		<g>
			<path fill="#DDB987" d="M419.4500122,259.9687805c-0.8874512-1.0745239-1.7612305-2.162323-2.6673889-3.2211609
				c-0.8969116-1.048111-2.5295715,0.5413208-1.5274353,1.5274353c0.9892578,0.9734802,2.0097656,1.916626,3.0160522,2.8725281
				C419.0630188,261.8997192,420.1234436,260.7841492,419.4500122,259.9687805L419.4500122,259.9687805z"/>
		</g>
	</g>
</g>
<g id="DOTS">
	<g>
		<g>
			<path fill="#FFFFFF" d="M218.6362305,248.0400391c-4.8041992,0-8.7124023-3.9082031-8.7124023-8.7119141
				c0-4.8046875,3.9082031-8.7128906,8.7124023-8.7128906s8.7128906,3.9082031,8.7128906,8.7128906
				C227.3491211,244.1318359,223.4404297,248.0400391,218.6362305,248.0400391z M218.6362305,232.6152344
				c-3.7011719,0-6.7124023,3.0117188-6.7124023,6.7128906s3.0112305,6.7119141,6.7124023,6.7119141
				c3.7016602,0,6.7128906-3.0107422,6.7128906-6.7119141S222.3378906,232.6152344,218.6362305,232.6152344z"/>
		</g>
		<g>
			<path fill="#FBF3E5" d="M320.5507813,334.0771484c-3.1035156,0-5.6279297-2.5244141-5.6279297-5.6279297
				c0-3.1025391,2.5244141-5.6269531,5.6279297-5.6269531c3.1025391,0,5.6269531,2.5244141,5.6269531,5.6269531
				C326.1777344,331.5527344,323.6533203,334.0771484,320.5507813,334.0771484z M320.5507813,324.8222656
				c-2,0-3.6279297,1.6269531-3.6279297,3.6269531s1.6279297,3.6279297,3.6279297,3.6279297
				s3.6269531-1.6279297,3.6269531-3.6279297S322.5507813,324.8222656,320.5507813,324.8222656z"/>
		</g>
		<g>
			<path fill="#FFFFFF" d="M365.828125,466.0898438c-3.5283203,0-6.3984375-2.8701172-6.3984375-6.3984375
				s2.8701172-6.3994141,6.3984375-6.3994141s6.3994141,2.8710938,6.3994141,6.3994141
				S369.3564453,466.0898438,365.828125,466.0898438z M365.828125,455.2919922
				c-2.4257813,0-4.3984375,1.9736328-4.3984375,4.3994141s1.9726563,4.3984375,4.3984375,4.3984375
				s4.3994141-1.9726563,4.3994141-4.3984375S368.2539063,455.2919922,365.828125,455.2919922z"/>
		</g>
		<g>
			<path fill="#FFFFFF" d="M503.4091797,398.3720703c-4.1660156,0-7.5556641-3.3896484-7.5556641-7.5556641
				s3.3896484-7.5556641,7.5556641-7.5556641s7.5556641,3.3896484,7.5556641,7.5556641
				S507.5751953,398.3720703,503.4091797,398.3720703z M503.4091797,385.2607422
				c-3.0634766,0-5.5556641,2.4921875-5.5556641,5.5556641s2.4921875,5.5556641,5.5556641,5.5556641
				s5.5556641-2.4921875,5.5556641-5.5556641S506.4726563,385.2607422,503.4091797,385.2607422z"/>
		</g>
		<g>
			<path fill="#FFFFFF" d="M441.1630859,152.9599609c-6.0800781,0-11.0263672-4.9462891-11.0263672-11.0263672
				s4.9462891-11.0263672,11.0263672-11.0263672c6.0791016,0,11.0253906,4.9462891,11.0253906,11.0263672
				S447.2421875,152.9599609,441.1630859,152.9599609z M441.1630859,132.9072266
				c-4.9775391,0-9.0263672,4.0488281-9.0263672,9.0263672s4.0488281,9.0263672,9.0263672,9.0263672
				c4.9765625,0,9.0253906-4.0488281,9.0253906-9.0263672S446.1396484,132.9072266,441.1630859,132.9072266z"/>
		</g>
	</g>
</g>
<g id="STICK">
	<g>
		<path fill="#E09433" d="M236.9663849,516.762207h-0.0000153c-2.2281036-0.3708496-3.7337189-2.4777222-3.362854-4.7058716
			l53.6756592-322.4802246l8.0687256,1.3430023L241.6722565,513.399353
			C241.3013916,515.6274414,239.1945038,517.1330566,236.9663849,516.762207z"/>
		<g>
			<g>
				<path fill="#DDB987" d="M306.8562012,198.2184753c-0.3805847,0.7877502-0.7713318,1.5694733-1.1095886,2.3764954
					c-0.2923584,0.697525-0.7601929,1.5852051-0.4480591,2.3321228c0.1442566,0.3451996,0.4519653,0.4891052,0.8022156,0.3263702
					c0.7061768-0.328125,0.9494629-1.2107086,1.2058105-1.8953247c0.3192749-0.8526459,0.5535278-1.735321,0.8104248-2.6081085
					C308.3329468,198.0164795,307.202179,197.5023956,306.8562012,198.2184753L306.8562012,198.2184753z"/>
			</g>
			<g>
				<path fill="#DDB987" d="M302.1075439,204.7984772c-6.1704712,0.0605927-5.0822449,7.9345856-6.1886597,12.0770721
					c-2.0961609,7.848114-5.9638367,16.6102753-5.4355469,24.8567505c0.0238953,0.37323,0.5524292,0.5795135,0.7498474,0.2030945
					c2.6509399-5.0552216,3.2207642-11.2546082,4.7288208-16.7402344c0.7076721-2.574173,1.583313-5.1030121,2.2458191-7.6885681
					c0.7373047-2.8773956,0.8368835-10.3412781,4.1009521-11.2213898
					C303.1287231,206.0641174,302.9683533,204.7900238,302.1075439,204.7984772L302.1075439,204.7984772z"/>
			</g>
			<g>
				<path fill="#DDB987" d="M288.8520508,249.3685455c-1.5536194,7.0033112-3.1001282,14.0714264-4.4182129,21.1216278
					c-0.2033997,1.0880127,1.3835449,1.5619507,1.681427,0.4635315c1.881073-6.9360657,2.894104-14.355896,3.1319885-21.5316772
					C289.2546692,249.1977386,288.9015808,249.1452789,288.8520508,249.3685455L288.8520508,249.3685455z"/>
			</g>
		</g>
		<path fill="#CD7930" d="M236.9664001,516.762207L236.9664001,516.762207
			c-2.2281342-0.3708496-3.7337494-2.4777832-3.3628845-4.7059326l53.6756592-322.4801941l4.0343933,0.671524
			L236.9664001,516.762207z"/>
		<g>
			
				<rect x="250.1862183" y="417.6102905" transform="matrix(0.1641875 -0.9864292 0.9864292 0.1641875 -204.6930389 601.8208618)" fill="#5B8A72" width="5.2058105" height="8.1797485"/>
			
				<rect x="262.2237549" y="345.2895813" transform="matrix(0.1641875 -0.9864292 0.9864292 0.1641875 -123.2926712 553.2484131)" fill="#5B8A72" width="5.2058105" height="8.1797485"/>
			
				<rect x="274.261261" y="272.9688721" transform="matrix(0.1641875 -0.9864292 0.9864292 0.1641875 -41.8922958 504.6760254)" fill="#5B8A72" width="5.2058105" height="8.1797485"/>
			
				<rect x="286.2987671" y="200.6481171" transform="matrix(0.1641875 -0.9864292 0.9864292 0.1641875 39.50811 456.1036072)" fill="#5B8A72" width="5.2058716" height="8.1797485"/>
		</g>
	</g>
</g>
<g id="LEFT_ARM">
	<g>
		<g>
			<path fill="#8B4D41" d="M50.6059189,224.0111694c0,0,0.6913528,21.9339294,1.1634827,24.4942322
				c0.472126,2.5603027,13.7603531,8.5814819,16.1681366,9.1964417c2.4077835,0.6149292,18.4559784-7.1096649,19.4304581-8.5247955
				c0.9744873-1.4151306-1.124649-8.9701538-1.2190781-9.4822235c-0.0944214-0.5120544-5.6871643-2.1281128-5.6871643-2.1281128
				s1.2565079-6.5853882,1.3327713-7.1289215s-13.2168198-8.5052338-13.2168198-8.5052338L50.6059189,224.0111694z"/>
			<g>
				<path fill="#1A2D3C" d="M72.4389648,242.0244141c-0.8115234,0-1.5361328-0.1455078-2.1435547-0.4443359
					c-0.8271484-0.4052734-1.3564453-1.078125-1.4516602-1.8466797c-0.1499023-1.2080078,0.7075195-2.2792969,1.4887695-2.9882813
					c-4.2578125-0.6152344-8.1079102-5.1494141-8.2875977-5.3632813c-0.1772461-0.2119141-0.1494141-0.5263672,0.0620117-0.7041016
					c0.2114258-0.1787109,0.5268555-0.1503906,0.7041016,0.0615234c0.0454102,0.0537109,4.6108398,5.4482422,8.902832,5.0556641
					c0.2280273-0.0185547,0.4472656,0.1210938,0.5200195,0.34375c0.0722656,0.2216797-0.0185547,0.4638672-0.21875,0.5839844
					c-0.6572266,0.3925781-2.3291016,1.6777344-2.1791992,2.8876953c0.0537109,0.4335938,0.3735352,0.8144531,0.8999023,1.0722656
					c0.6196289,0.3046875,2.9936523,1.0859375,7.5512695-1.6162109c0.2358398-0.1425781,0.543457-0.0634766,0.6850586,0.1748047
					c0.140625,0.2373047,0.0625,0.5439453-0.175293,0.6845703
					C76.4755859,241.3027344,74.2431641,242.0244141,72.4389648,242.0244141z"/>
			</g>
			<g>
				<path fill="#1A2D3C" d="M71.7587891,254.4863281c-0.019043,0-0.0380859-0.0009766-0.0576172-0.0029297
					c-0.2744141-0.0322266-0.4711914-0.2802734-0.4394531-0.5537109c0.1655273-1.4443359,0.2763672-5.484375-1.1791992-6.8261719
					c-1.8544922-1.7099609-8.5810547-3.6679688-8.6484375-3.6875c-0.265625-0.0771484-0.418457-0.3544922-0.3417969-0.6191406
					c0.0771484-0.2646484,0.3520508-0.4199219,0.6191406-0.3417969c0.2861328,0.0830078,7.0219727,2.0449219,9.0488281,3.9140625
					c2.1264648,1.9599609,1.5214844,7.4423828,1.4946289,7.6748047
					C72.2255859,254.2988281,72.0092773,254.4863281,71.7587891,254.4863281z"/>
			</g>
			<g>
				<path fill="#1A2D3C" d="M79.2797852,250.4921875c-0.0307617,0-0.0615234-0.0029297-0.0927734-0.0087891
					c-0.2709961-0.0507813-0.449707-0.3115234-0.3999023-0.5830078c0.0419922-0.2265625,0.9624023-5.5751953-4.3935547-8.0898438
					c-0.25-0.1171875-0.3574219-0.4150391-0.2402344-0.6650391c0.1171875-0.2490234,0.4135742-0.3574219,0.6650391-0.2392578
					c6.0683594,2.8476563,4.9638672,9.1152344,4.9516602,9.1787109
					C79.7250977,250.3251953,79.5151367,250.4921875,79.2797852,250.4921875z"/>
			</g>
		</g>
		<g>
			<path fill="#BA233E" d="M85.5235825,123.0610657c-1.1597061,9.6858826-1.0669022,16.2637634-1.0669022,16.2637634
				l-21.8117943,32.666626l15.0854912,49.4777985c0,0-3.469841,8.2478638-14.4082413,11.0218811
				c-10.9476318,2.7832947-17.0523529,0-17.0523529,0c-1.9854317-3.2935638-12.4969864-32.1285706-15.3638096-44.7740326
				c-0.9927158-4.4161682-1.8833351-8.7488251-2.5049801-12.5619354c-0.8721027-5.3068542-1.280323-9.602417-0.8628159-11.6898804
				c0.380415-1.9946747,2.7740116-6.596405,6.2624245-12.3670959
				c10.2054291-16.7926025,34.3459282-52.1961441,40.6269264-52.1775742
				C85.8297577,98.9391327,86.9245148,111.5475082,85.5235825,123.0610657z"/>
			<g>
				<g>
					<path fill="#DDB987" d="M19.0925407,184.0984344c0.588131,2.0718689,1.0238342,4.161911,1.4666481,6.26828
						c0.3943729,1.8759308,0.554678,3.8610077,1.3065453,5.6262665c0.3399601,0.7981567,1.4553871,0.3034515,1.4996986-0.4062042
						c0.2402344-3.8474579-1.849905-8.2688904-3.219696-11.7787018
						C19.8961372,183.1685333,18.8961449,183.4065704,19.0925407,184.0984344L19.0925407,184.0984344z"/>
				</g>
				<g>
					<path fill="#DDB987" d="M23.3935223,161.4242859c6.2030907-12.0140228,11.9352779-23.7552795,20.1297207-34.6017532
						c3.9721718-5.2577209,7.3847618-10.6433105,11.94701-15.4594269
						c3.9762802-4.1975403,9.7086868-8.4925919,12.3765564-13.6164246c0.2131348-0.4093475-0.21138-0.8178864-0.6160965-0.6160965
						c-5.3224564,2.6538696-9.7518539,9.1437912-13.8036346,13.4444656
						c-4.2739792,4.5365219-7.4485054,9.5764084-11.1387329,14.5611649
						c-8.1226578,10.9720764-15.8802547,22.7070465-19.6828327,35.9558563
						C22.4730721,161.5535126,23.1657944,161.8653412,23.3935223,161.4242859L23.3935223,161.4242859z"/>
				</g>
				<g>
					<path fill="#DDB987" d="M72.4263687,95.6267548c1.4535599-0.0824203,2.7331696-1.1817474,4.0027237-1.8307266
						c1.2331085-0.6303406,3.0527954-1.000473,3.8170929-2.1958694c0.2557907-0.4000702,0.0131226-1.0058441-0.4523392-1.1118622
						c-1.4246597-0.324501-2.9426575,0.7824631-4.1684723,1.4315186c-1.2779999,0.6766891-3.0722504,1.3818741-3.7615509,2.7266235
						C71.6523514,95.0589981,71.9048691,95.6563263,72.4263687,95.6267548L72.4263687,95.6267548z"/>
				</g>
				<g>
					<path fill="#F1D5A7" d="M46.4883842,253.9019928c4.7151222,3.8928986,11.1564674,8.5276947,17.443325,9.0805817
						c0.7933884,0.0697632,1.0460358-1.1011047,0.3965225-1.4640198c-2.7647285-1.5447693-5.9726372-2.2982178-8.8296204-3.7119141
						c-2.8778725-1.4240112-5.6348572-3.0287323-8.26717-4.8676758
						C46.6664124,252.5442352,45.9501648,253.4576416,46.4883842,253.9019928L46.4883842,253.9019928z"/>
				</g>
				<g>
					<path fill="#DDB987" d="M26.9553375,188.0471802c2.4668694,10.5024109,5.0171127,20.9792938,7.7734528,31.4105988
						c2.5632782,9.7006836,4.2936363,20.336853,8.2845802,29.5503845c0.4528961,1.0455627,2.3418465,0.5435486,2.1959877-0.5947723
						c-1.2765541-9.9624786-5.2194481-19.9967194-7.970787-29.647522
						c-2.957901-10.3753662-6.1162872-20.6847382-9.3593769-30.9733734
						C27.6939659,187.2048645,26.8139133,187.4450989,26.9553375,188.0471802L26.9553375,188.0471802z"/>
				</g>
			</g>
			<path fill="#8F2429" d="M84.4566803,139.3248291l-21.8117943,32.666626l15.0854912,49.4777985
				c0,0-3.469841,8.2478638-14.4082413,11.0218811c-10.9476318,2.7832947-17.0523529,0-17.0523529,0
				c-1.9854317-3.2935638-12.4969864-32.1285706-15.3638096-44.7740326
				c11.6249409,6.6242676,15.6328983-4.6016846,18.082159-15.4287567
				c2.7276382-11.9681549,25.5135765-44.5142136,35.2180367-50.0251465l1.3174133,0.7978668
				C84.3638763,132.7469482,84.4566803,139.3248291,84.4566803,139.3248291z"/>
			<g>
				<circle fill="#1A2D3C" cx="45.910778" cy="211.5916901" r="2.8810718"/>
				<circle fill="#1A2D3C" cx="49.2193909" cy="222.6362152" r="2.8810718"/>
			</g>
			<path fill="#CE5D79" d="M27.5314598,163.4670715c-0.4019184,2.0792236-0.0020618,6.379364,0.8680973,11.6824493
				c1.8758335,0.2186737,3.8697987-0.1167297,5.6268063-1.1090851c1.9509201-1.0977173,3.5957909-3.0013275,4.3945427-5.8373566
				c0.7671967-2.7129669,1.0977249-5.4902191,0.956028-8.006897c-0.0570831-1.2190552-0.2349815-2.3856201-0.5367737-3.4408569
				c-0.8033638-2.9129791-2.4573402-5.0661469-5.036869-5.6560364
				C30.3113556,156.8579559,27.9245605,161.4690704,27.5314598,163.4670715z"/>
			<g>
				<path fill="#1A2D3C" d="M37.0810547,160.8046875c-0.2651367,0-0.4863281-0.2089844-0.4990234-0.4765625
					c-0.0131836-0.2753906,0.199707-0.5097656,0.4755859-0.5224609l3.8432617-0.1826172
					c0.2636719-0.0302734,0.5102539,0.1992188,0.5234375,0.4755859c0.0131836,0.2753906-0.199707,0.5097656-0.4755859,0.5224609
					l-3.8432617,0.1826172C37.097168,160.8046875,37.0893555,160.8046875,37.0810547,160.8046875z"/>
			</g>
			<g>
				<path fill="#1A2D3C" d="M36.6533203,157.9208984c-0.2143555,0-0.4125977-0.1386719-0.4780273-0.3544922
					c-0.0805664-0.2636719,0.0678711-0.5429688,0.3320313-0.6240234l3.6425781-1.1103516
					c0.2636719-0.0800781,0.543457,0.0683594,0.6240234,0.3330078c0.0805664,0.2636719-0.0678711,0.5429688-0.3320313,0.6240234
					l-3.6425781,1.1103516C36.7504883,157.9140625,36.7016602,157.9208984,36.6533203,157.9208984z"/>
			</g>
			<g>
				<path fill="#1A2D3C" d="M35.0620117,177.2226563c-0.2001953,0-0.3896484-0.1210938-0.4663086-0.3193359l-1.7563477-4.5380859
					c-0.0996094-0.2578125,0.0283203-0.546875,0.2856445-0.6464844c0.2573242-0.1035156,0.5473633,0.0273438,0.6469727,0.2851563
					l1.7563477,4.5380859c0.0996094,0.2578125-0.0283203,0.546875-0.2856445,0.6464844
					C35.1831055,177.2119141,35.1220703,177.2226563,35.0620117,177.2226563z"/>
			</g>
			<g>
				<path fill="#1A2D3C" d="M53.0644531,172.4951172c-0.0449219,0-0.090332-0.0058594-0.1352539-0.0185547l-12.5327148-3.5058594
					c-0.265625-0.0742188-0.4213867-0.3505859-0.3466797-0.6162109s0.3540039-0.4189453,0.6162109-0.3466797l12.5327148,3.5058594
					c0.265625,0.0742188,0.4208984,0.3505859,0.3466797,0.6162109
					C53.4838867,172.3505859,53.2827148,172.4951172,53.0644531,172.4951172z"/>
			</g>
			<g>
				<path fill="#1A2D3C" d="M40.2143555,175.9160156c-0.2509766,0-0.4672852-0.1884766-0.4960938-0.4433594
					c-0.03125-0.2744141,0.1655273-0.5224609,0.4399414-0.5537109c3.4648438-0.3945313,11.5957031-1.2919922,12.2963867-1.1142578
					c0.2670898,0.0683594,0.4282227,0.3408203,0.3598633,0.6083984c-0.0673828,0.2617188-0.3291016,0.421875-0.5927734,0.3642578
					c-0.6860352-0.0947266-7.6850586,0.6484375-11.9501953,1.1357422
					C40.2524414,175.9150391,40.2329102,175.9160156,40.2143555,175.9160156z"/>
			</g>
		</g>
	</g>
</g>
<g id="LEFT__LEG">
	<g>
		<path fill="#416050" d="M129.5954132,335.9405823c-1.8100052,10.3800049-3.3199539,18.25-3.9899979,21.6000366
			c-0.4799805,2.4299927-1.7399902,6.9499512-3.4599609,12.6999512
			c-7.5200195,25.1700439-23.9700317,73.9399414-23.9700317,73.9399414l-11.5100098,0.1401367l-22.8800049,0.289917
			l16.5400391-93.5999756c0,0-7.8300171-92.2999878-8.2700195-104.0499878
			c-0.1599731-4.4500122,0.4199829-9.8900146,1.210022-14.9400024c1.2999878-8.2999878,3.1499634-15.539978,3.1499634-15.539978
			c10.4400024-31.3500366,60.9500198-16.9800415,64.0000076,14.7999878
			C142.6754303,254.9006042,134.8354645,305.9206238,129.5954132,335.9405823z"/>
		<g>
			<g>
				<path fill="#DDB987" d="M135.3555756,319.5296021c-2.0571289,11.5753174-5.1846161,22.9492188-7.2160339,34.4944763
					c-0.1601791,0.9103088,1.1848755,1.6804504,1.62854,0.6865845c4.7444153-10.6282043,6.6000061-23.4182129,7.0177612-34.9874878
					C136.8148804,318.9189758,135.5011139,318.7106018,135.3555756,319.5296021L135.3555756,319.5296021z"/>
			</g>
			<g>
				<path fill="#F1D5A7" d="M127.5774612,369.5422974c-4.1088486,7.1244202-6.2335358,15.8657532-8.6852036,23.6837769
					c-2.4709778,7.8795776-5.7310333,16.194458-6.4352112,24.455719c-0.0880203,1.0325317,1.5674133,1.5034485,1.9995956,0.5415955
					c3.285881-7.3131409,4.7157593-15.6191711,6.9891663-23.2961121c2.4130249-8.1483765,6.0086517-16.4862976,7.3399277-24.8755798
					C128.8963928,369.3544006,127.9789124,368.8461914,127.5774612,369.5422974L127.5774612,369.5422974z"/>
			</g>
			<g>
				<path fill="#DDB987" d="M109.9413223,427.0801086c-0.3103485,2.1054688-0.6682358,4.206604-1.1216125,6.2863159
					c-0.4015884,1.8421631-1.1558533,3.7343445-1.1218414,5.6252441c0.0116806,0.6494751,0.8754959,0.8820496,1.214035,0.3288269
					c1.0533752-1.7214661,1.265152-3.9637146,1.5934677-5.9311829c0.3399429-2.0370789,0.5710678-4.0761108,0.7156677-6.1360168
					C111.2717209,426.531311,110.0489807,426.349762,109.9413223,427.0801086L109.9413223,427.0801086z"/>
			</g>
			<g>
				<path fill="#F1D5A7" d="M107.5614548,448.6054688c-1.3928986,14.1524658-3.5933685,31.821106,7.8612823,42.7258301
					c0.8197021,0.780365,2.5182419,0.013031,2.0496902-1.1931458c-2.6840744-6.909668-7.2290192-11.693512-7.792038-19.5430603
					c-0.5249634-7.3189392-0.2517548-14.6663818-0.8925934-21.989624
					C108.7185974,447.8146973,107.6388016,447.8196411,107.5614548,448.6054688L107.5614548,448.6054688z"/>
			</g>
			<g>
				<path fill="#DDB987" d="M117.5712433,500.3317261c1.1786957,2.7652588,2.7495804,5.1778564,4.8835907,7.3070068
					c1.7963715,1.7922974,4.1830063,4.0059204,6.822464,4.1968689c1.0460358,0.0756836,1.3511658-1.225647,0.7858582-1.8972473
					c-1.5496368-1.8410034-4.0853119-2.860199-5.8564758-4.5322876c-1.8902435-1.7845154-3.508522-3.8952026-4.782341-6.1575012
					C118.7273865,498.0107727,117.0457153,499.0988159,117.5712433,500.3317261L117.5712433,500.3317261z"/>
			</g>
			<g>
				<path fill="#DDB987" d="M64.7270584,267.6061096c0.2787552,3.961853,0.2007217,8.3210449,1.2056274,12.1725159
					c0.2170486,0.8319092,1.4015198,0.6142883,1.4490891-0.196106c0.2294617-3.9093323-0.6882553-8.0971069-1.1792755-11.9764099
					C66.0866547,266.6908569,64.65905,266.6395569,64.7270584,267.6061096L64.7270584,267.6061096z"/>
			</g>
			<g>
				<path fill="#DDB987" d="M67.9061127,292.3900757c0.0667343,9.5138245,2.835556,19.2203064,3.600502,28.7458801
					c0.7787552,9.6975403,0.1039505,19.4373779,0.8398972,29.1013794c0.0967331,1.2702332,2.1376877,1.7658997,2.3900604,0.3234558
					c1.7149658-9.8019409,0.771492-20.5048218-0.207283-30.3609314c-0.9072952-9.1362915-1.5867386-19.7352295-5.5162582-28.1096191
					C68.7552719,291.5409241,67.9021912,291.8311768,67.9061127,292.3900757L67.9061127,292.3900757z"/>
			</g>
			<g>
				<path fill="#F1D5A7" d="M69.9896011,360.2119751c-0.653511,5.9119873-2.4163742,11.507782-3.3560791,17.3328857
					c-0.1373596,0.8514709,1.1334534,1.60495,1.5409927,0.6496582c2.3509979-5.5108948,2.8697205-12.052002,3.194725-17.9825439
					C71.4186096,359.3110657,70.0850525,359.3485107,69.9896011,360.2119751L69.9896011,360.2119751z"/>
			</g>
			<g>
				<path fill="#DDB987" d="M66.5972748,387.2214966c-2.9381218,8.4668884-4.8645859,17.3651428-7.138031,26.02948
					c-2.0463219,7.7987366-5.5363998,16.4256592-5.7950516,24.4975281
					c-0.0193443,0.6037598,0.8788452,0.8666687,1.1604805,0.3143005c3.6552734-7.1690674,4.7849884-16.4463806,6.7486534-24.2290039
					c2.1935196-8.693634,4.7999496-17.4149475,6.3173447-26.2557373
					C68.0356293,386.73349,66.8838501,386.3956299,66.5972748,387.2214966L66.5972748,387.2214966z"/>
			</g>
			<g>
				<path fill="#DDB987" d="M51.4214592,449.2227783c-0.2706223,4.1364136-0.6232605,8.5271606,0.5524559,12.552063
					c0.2141685,0.7331543,1.1867485,0.5233459,1.2608986-0.1706543c0.4368973-4.0891418-0.1099319-8.2669678-0.0121651-12.3814087
					C53.2503891,448.0554199,51.4965286,448.0753479,51.4214592,449.2227783L51.4214592,449.2227783z"/>
			</g>
			<g>
				<path fill="#DDB987" d="M53.4394836,470.6036377c1.0207253,6.8721619,1.5226097,13.8825378,1.6866798,20.8273926
					c0.1310043,5.5453491-0.8389511,11.5255737,0.8650436,16.8870239c0.4455872,1.4020081,2.889595,1.2523804,2.7099876-0.3667603
					c-0.7118988-6.4177551-0.30373-12.8440857-0.7448425-19.2819214
					c-0.4293365-6.2658997-1.6064949-12.3660889-3.0571747-18.4681702
					C54.6686134,469.2313843,53.300209,469.6659546,53.4394836,470.6036377L53.4394836,470.6036377z"/>
			</g>
		</g>
		<path fill="#304B3B" d="M129.5954132,335.9405823c-1.8100052,10.3800049-3.3199539,18.25-3.9899979,21.6000366
			c-0.4799805,2.4299927-1.7399902,6.9499512-3.4599609,12.6999512
			c-7.5200195,25.1700439-23.9700317,73.9399414-23.9700317,73.9399414l-11.5100098,0.1401367
			c-2.3699951-3.2399902-3.3399658-7.710083-2.4799805-13.3901367c6.75-44.7299194,27-81.0198975,24.4700317-92.4199219
			c-2.5300293-11.3900146-11.3900146-42.6199951-5.0600586-49.3699951c6.3300171-6.75,14.3400269-30.3800049,9.2800293-32.0700073
			c-4.2800293-1.4299927-27.8300171-12.4899902-39.6099854-25.0499878c1.2999878-8.2999878,3.1499634-15.539978,3.1499634-15.539978
			c10.4400024-31.3500366,60.9500198-16.9800415,64.0000076,14.7999878
			C142.6754303,254.9006042,134.8354645,305.9206238,129.5954132,335.9405823z"/>
		<g>
			<path fill="#1A2D3C" d="M90.3969727,433.6240234c-0.0361328,0-0.0727539-0.0039063-0.109375-0.0117188
				c-0.2695313-0.0605469-0.4394531-0.328125-0.3789063-0.5976563c0.1508789-0.6757813,15.1132813-67.6953125,16.2304688-78.1220703
				c1.1206055-10.4560547,10.6132813-92.53125,10.7089844-93.359375c0.0317383-0.2744141,0.2788086-0.4667969,0.5541992-0.4394531
				c0.2739258,0.0322266,0.4707031,0.2802734,0.4389648,0.5546875C117.7456055,262.4755859,108.253418,344.5478516,107.1333008,355
				c-1.1225586,10.4814453-16.0976563,77.5566406-16.2490234,78.2333984
				C90.8325195,433.4658203,90.6259766,433.6240234,90.3969727,433.6240234z"/>
		</g>
		<g>
			<path fill="#1A2D3C" d="M115.1064453,354.5693359c-0.0141602,0-0.0288086-0.0009766-0.043457-0.0019531l-27.7734375-2.4033203
				c-0.2753906-0.0234375-0.4790039-0.265625-0.4550781-0.5410156c0.0234375-0.2753906,0.2524414-0.4726563,0.5410156-0.4550781
				l27.7734375,2.4033203c0.2753906,0.0234375,0.4790039,0.265625,0.4550781,0.5410156
				C115.581543,354.3730469,115.3632813,354.5693359,115.1064453,354.5693359z"/>
		</g>
		<g>
			<path fill="#1A2D3C" d="M112.703125,358.0410156c-0.0112305,0-0.0219727,0-0.0332031-0.0009766L88.3681641,356.4375
				c-0.2758789-0.0185547-0.484375-0.2568359-0.4663086-0.5322266c0.0185547-0.2753906,0.2578125-0.4951172,0.5317383-0.4658203
				l24.3017578,1.6025391c0.2758789,0.0185547,0.484375,0.2568359,0.4663086,0.5322266
				C113.184082,357.8378906,112.9643555,358.0410156,112.703125,358.0410156z"/>
		</g>
		<path fill="#5B8A72" d="M129.5954132,335.9405823c-1.8100052,10.3800049-3.3199539,18.25-3.9899979,21.6000366
			c-0.4799805,2.4299927-1.7399902,6.9499512-3.4599609,12.6999512c-3.3500366-2.5-6.8500366-7.4899902-4.6600342-17.0899658
			C119.7954178,342.9806213,125.49543,338.1506042,129.5954132,335.9405823z"/>
		<g>
			<path fill="#1A2D3C" d="M124.7709961,343.0029297c-0.1538086,0-0.3056641-0.0703125-0.4038086-0.2041016l-1.9785156-2.6982422
				c-0.1630859-0.2226563-0.1152344-0.5361328,0.1074219-0.6992188c0.2231445-0.1650391,0.5351563-0.1162109,0.6992188,0.1074219
				l1.9785156,2.6982422c0.1630859,0.2226563,0.1152344,0.5361328-0.1074219,0.6992188
				C124.9770508,342.9716797,124.8735352,343.0029297,124.7709961,343.0029297z"/>
		</g>
		<g>
			<path fill="#1A2D3C" d="M124.4106445,345.3417969c-0.1176758,0-0.2358398-0.0410156-0.3305664-0.125l-3.0581055-2.6982422
				c-0.2075195-0.1826172-0.2270508-0.4990234-0.0444336-0.7060547c0.184082-0.2060547,0.5-0.2265625,0.7055664-0.0439453
				l3.0581055,2.6982422c0.2075195,0.1826172,0.2270508,0.4990234,0.0444336,0.7060547
				C124.6865234,345.2841797,124.5488281,345.3417969,124.4106445,345.3417969z"/>
		</g>
		<g>
			<path fill="#1A2D3C" d="M115.7758789,368.3681641c-0.1357422,0-0.2714844-0.0546875-0.3701172-0.1640625
				c-0.1855469-0.2041016-0.1704102-0.5205078,0.0336914-0.7060547l3.9580078-3.5976563
				c0.2041016-0.1845703,0.5214844-0.1708984,0.706543,0.0341797c0.1855469,0.2041016,0.1704102,0.5205078-0.0336914,0.7060547
				l-3.9580078,3.5976563C116.0166016,368.3251953,115.8959961,368.3681641,115.7758789,368.3681641z"/>
		</g>
		<g>
			<g>
				<path fill="#8B4D41" d="M71.3983688,453.797821c0.6802216-4.3920593,18.8457108,2.3417969,18.8457108,2.3417969
					s10.5834503,38.9048767,12.1547699,41.1963501s7.6219025,9.1658936,11.1063919,11.648407
					c3.4844894,2.4823608,2.7679749,4.9647217-9.6769638,3.2462158
					c-12.4449387-1.7186279-32.306221-31.8898621-32.306221-31.8898621S70.7182236,458.1898804,71.3983688,453.797821z"/>
				<g>
					<path fill="#E09433" d="M67.0506363,516.0441895h10.3457718c0.180397-5.9007568,0.8631973-16.4398193,3.4786606-16.4398193
						c2.9374771,0,5.3467484,11.9304504,6.145546,16.4398193h36.1263733l-18.2564774-18.5140991
						c0,0-1.700676,1.5203552-3.7878571,1.713501c-1.4429855,0.1289368-9.3923035-13.1414795-15.9888306-22.5209656
						c-3.0534668-4.328949-5.8235245-7.833313-7.5242004-8.7996216c-5.4111557-3.0534668-10.1395874-0.9533691-10.7708817,5.9265442
						C66.1874466,480.7167358,67.0506363,516.0441895,67.0506363,516.0441895z"/>
					<path fill="#C27D33" d="M93.3466263,516.0441895h29.8003616l-18.2564774-18.5140991c0,0-1.700676,1.5203552-3.7878571,1.713501
						c-1.4429855,0.1289368-9.3923035-13.1414795-15.9888306-22.5209656
						c3.6589737,6.6739197,8.3745041,14.6747437,11.556778,21.2712708
						C100.2909622,505.5052795,97.80439,511.6122131,93.3466263,516.0441895z"/>
				</g>
			</g>
			<g>
				<polygon fill="#638D77" points="57.9417458,436.7182007 59.6811142,459.6644287 64.3965683,459.7804871 
					100.2265625,460.6822815 102.0045395,440.2485352 102.3653259,436.1384888 				"/>
				<path fill="#416050" d="M64.3965683,459.7804871l35.8299942,0.9017944l1.777977-20.4337463l-2.4994736-1.4042969
					l-19.3514938,1.8294067C80.1535721,440.673645,73.5698624,453.6477661,64.3965683,459.7804871z"/>
				<g>
					<path fill="#1A2D3C" d="M86.9804688,459.0410156c-0.0151367,0-0.0302734-0.0009766-0.0454102-0.0019531
						c-0.2749023-0.0244141-0.4780273-0.2675781-0.453125-0.5429688l1.8442383-20.453125
						c0.0244141-0.2744141,0.2749023-0.4667969,0.5429688-0.453125c0.2749023,0.0244141,0.4780273,0.2675781,0.453125,0.5429688
						l-1.8442383,20.453125C87.4545898,458.8457031,87.2363281,459.0410156,86.9804688,459.0410156z"/>
				</g>
				<g>
					<path fill="#1A2D3C" d="M81.9785156,455.6328125c-0.015625,0-0.0317383-0.0009766-0.0478516-0.0019531
						c-0.2749023-0.0263672-0.4765625-0.2705078-0.4501953-0.5458984l1.4702148-15.3994141
						c0.0258789-0.2744141,0.2661133-0.4697266,0.5449219-0.4501953c0.2749023,0.0263672,0.4765625,0.2705078,0.4501953,0.5458984
						l-1.4702148,15.3994141C82.4511719,455.4394531,82.2333984,455.6328125,81.9785156,455.6328125z"/>
				</g>
			</g>
		</g>
	</g>
</g>
<g id="RIGHT_LEG">
	<g>
		<path fill="#5B8A72" d="M203.9354401,370.8506165c-4.0800171,28.0999146-10.0800171,68.0099487-9.1400146,70.210022
			c0.7000122,1.6298828-7.2299805,1.7600098-15.4199829,1.4699707c-8.3699951-0.2800293-17-1-17-1l-1.9000244-86.3099976
			c0,0-37.5600052-75.7800293-45.5499954-101.6300049c-0.4500122-1.4400024-0.8399658-2.9100342-1.1799927-4.4000244
			c-5.8599854-25.1799927,2.7299805-56.0199585,28.900032-60.8999634c27.7199707-5.1700439,39,8.9199829,44.6300049,26.3099976
			c0.8099976,2.4699707,14.0299683,84.2799683,18.6399536,116.5599976
			c0.9800415,6.8599854,1.5700073,11.4899902,1.5700073,12.6399536
			C207.4854279,345.9706116,205.9454498,356.9706116,203.9354401,370.8506165z"/>
		<g>
			<g>
				<path fill="#FFFFFF" d="M194.1451874,233.0957336c3.0854797,29.9370728,9.8153229,59.4024658,12.9836121,89.3439331
					c0.1803741,1.7046814,2.8190308,1.7767334,2.7209473,0c-0.8177185-14.8135071-3.2728577-29.5818787-5.8814697-44.1678467
					c-2.7001038-15.0975342-5.4280548-30.3937988-9.220871-45.2575836
					C194.6643219,232.6885986,194.1090088,232.7446747,194.1451874,233.0957336L194.1451874,233.0957336z"/>
			</g>
			<g>
				<path fill="#DDB987" d="M208.873703,331.8310852c0.5682678,1.7188721,0.9965057,3.4755859,1.4579468,5.2249756
					c0.4105988,1.5566711,0.4900055,3.4409485,1.4521027,4.7524414c0.4151611,0.565918,1.6030884,0.672699,1.7336121-0.226593
					c0.2570343-1.7707825-0.5903931-3.4300842-1.2418671-5.0617371c-0.7016602-1.7573547-1.5946655-3.4090881-2.4912109-5.0729675
					C209.5197449,330.9562378,208.694809,331.2900085,208.873703,331.8310852L208.873703,331.8310852z"/>
			</g>
			<g>
				<path fill="#DDB987" d="M210.5053101,349.1520081c-3.0686493,12.3773499-4.4462433,25.3414612-6.4906311,37.9239197
					c-1.0036011,6.1767883-1.9618073,12.3595276-2.9115143,18.5447998
					c-0.9094238,5.9230652-2.3290558,11.9947205-2.5145416,17.9872742
					c-0.0449066,1.4506226,2.1174927,1.7109985,2.5029755,0.3387451c1.7585297-6.2602539,2.2439575-13.0467529,3.230957-19.4750366
					c0.9505615-6.1909485,1.8752136-12.3843689,2.7717743-18.5833435
					c1.7488556-12.0917358,4.1986542-24.3266602,4.9541626-36.5274963
					C212.1034546,348.4732971,210.7169495,348.2984009,210.5053101,349.1520081L210.5053101,349.1520081z"/>
			</g>
			<g>
				<path fill="#F1D5A7" d="M202.1275177,427.0874023c-0.2816315,1.9858398,0.5477905,3.9767151,1.0780487,5.8779907
					c0.5276642,1.8919983,0.7900848,4.118927,2.1283722,5.6131287c0.390564,0.4360657,1.2727814,0.2412109,1.3771362-0.3635864
					c0.3428497-1.986908-0.594574-4.00354-1.151947-5.8983765c-0.5545197-1.8851624-0.8936615-4.0315247-2.1825714-5.5589294
					C203.0382996,426.356781,202.2047882,426.542511,202.1275177,427.0874023L202.1275177,427.0874023z"/>
			</g>
			<g>
				<path fill="#DDB987" d="M205.7333527,444.1572876c-0.8661804,3.3599854-1.2643585,6.808197-1.7717133,10.2357788
					c-0.4454803,3.009552-1.300354,6.1663818-0.9341583,9.192627c0.0921326,0.761261,1.2748108,1.3796082,1.6782379,0.4545288
					c1.1696014-2.6819763,1.292511-5.6794739,1.6736603-8.5688477c0.4854279-3.6799011,1.0712738-7.3596191,1.104187-11.0772095
					C207.4924011,443.3954468,205.9862671,443.1762085,205.7333527,444.1572876L205.7333527,444.1572876z"/>
			</g>
			<g>
				<path fill="#F1D5A7" d="M195.4785461,467.7897034c-0.1442566,2.1379089,0.0930481,4.3343201,0.8887329,6.3363953
					c0.5734558,1.4429321,1.3382568,3.520813,3.0579834,3.6784668c0.2800293,0.0256653,0.6369019-0.2366333,0.6836548-0.5205078
					c0.2351227-1.4276123-0.9537201-2.5105591-1.5263977-3.7726135c-0.825531-1.8193359-1.243515-3.7244873-1.2644501-5.7217407
					C197.305542,466.5956116,195.5576477,466.6175842,195.4785461,467.7897034L195.4785461,467.7897034z"/>
			</g>
			<g>
				<path fill="#DDB987" d="M202.2408905,484.9376526c1.8441162,6.0329285,6.2703705,11.5436707,9.9129791,16.6235962
					c2.5841827,3.6038818,6.0003204,8.4363403,10.6517487,9.2181702c1.056488,0.1776123,2.0160828-1.0595703,1.1185913-1.9215698
					c-3.7508545-3.6025085-7.3374329-6.301178-10.4541931-10.6444092
					c-3.3007202-4.5995483-6.6057739-9.1574097-9.6005707-13.9623718
					C203.349472,483.4168091,201.9366608,483.9423828,202.2408905,484.9376526L202.2408905,484.9376526z"/>
			</g>
			<g>
				<path fill="#F1D5A7" d="M140.8225555,332.2168884c1.7475281,3.1748657,3.3609467,6.4169006,5.1466064,9.5712585
					c1.4158325,2.5010681,2.5773315,5.5224915,4.9672546,7.2063293c0.6876678,0.4845276,1.3679504-0.3139343,1.2666626-0.9737549
					c-0.4507599-2.9367371-2.8947906-5.5458679-4.5276642-7.9699097c-1.9114838-2.837616-3.9813843-5.5610046-5.9263153-8.3755188
					C141.3605347,331.1130371,140.4850616,331.6037598,140.8225555,332.2168884L140.8225555,332.2168884z"/>
			</g>
			<g>
				<path fill="#DDB987" d="M152.8664093,356.7476807c-0.4806671,8.3381348-0.1661987,16.6987915-0.7400665,25.0435181
					c-0.5725098,8.3251343-2.3134003,16.5374146-2.827301,24.84198c-0.0907593,1.4665833,2.0119629,1.5999756,2.4465179,0.3311157
					c2.6893005-7.8525085,3.269928-16.922821,3.6217194-25.1730957c0.3556366-8.3406677,0.2483215-16.9945679-1.6539917-25.1581421
					C153.598587,356.1408691,152.8934174,356.2790833,152.8664093,356.7476807L152.8664093,356.7476807z"/>
			</g>
			<g>
				<path fill="#DDB987" d="M150.0975494,416.2119751c-0.0100403,6.034729-1.2887421,11.8365173-1.6452484,17.8034973
					c-0.0624847,1.0458984,1.3866577,1.0937195,1.7125702,0.231781c2.0826263-5.5076904,1.7823639-12.3067017,1.1015472-18.0352783
					C151.1801147,415.4857788,150.0988464,415.4388733,150.0975494,416.2119751L150.0975494,416.2119751z"/>
			</g>
			<g>
				<path fill="#F1D5A7" d="M149.2280273,445.9178467c-0.9371185,6.4035645-0.6319275,13.0590515-0.6725922,19.5209656
					c-0.0444641,7.0657654-0.2412109,14.2078552,0.223938,21.260376c0.1027222,1.5576172,2.2922363,1.5482483,2.4143524,0
					c0.5558014-7.0464172,0.3930054-14.1958618,0.3317566-21.260376c-0.055954-6.4537048,0.1632538-13.1421204-0.8931885-19.5209656
					C150.518158,445.2287292,149.3306885,445.2163696,149.2280273,445.9178467L149.2280273,445.9178467z"/>
			</g>
			<g>
				<path fill="#DDB987" d="M148.9489746,494.5351257c0.0769043,3.3600159-0.3803253,7.3146362,0.4482269,10.5728149
					c0.2171173,0.8538208,1.6469421,0.9354858,1.8107605,0c0.5821381-3.324585-0.1490479-7.207428-0.3236542-10.5728149
					C150.8201752,493.2991943,148.9203033,493.282135,148.9489746,494.5351257L148.9489746,494.5351257z"/>
			</g>
		</g>
		<path fill="#4A775F" d="M203.9354401,370.8506165c-4.0800171,28.0999146-10.0800171,68.0099487-9.1400146,70.210022
			c0.7000122,1.6298828-7.2299805,1.7600098-15.4199829,1.4699707c1.0599976-9.9399414,2.4000244-21.5,3.9699707-33.1199951
			c4.2200317-31.2300415,11.8200073-62.460022,9.710022-75.5400391
			c-2.1099854-13.0799561-29.539978-55.2799683-21.9500122-62.4499512
			c7.6000366-7.1700439,8.0200195-29.5400391-5.8999634-25.3200073
			c-11.0499878,3.3499756-36.6900024,6.6900024-51.4600296,3.0899658
			c-5.8599854-25.1799927,2.7299805-56.0199585,28.900032-60.8999634c27.7199707-5.1700439,39,8.9199829,44.6300049,26.3099976
			c0.8099976,2.4699707,14.0299683,84.2799683,18.6399536,116.5599976
			c0.9800415,6.8599854,1.5700073,11.4899902,1.5700073,12.6399536
			C207.4854279,345.9706116,205.9454498,356.9706116,203.9354401,370.8506165z"/>
		<path fill="#82BE9B" d="M207.4854279,343.8005676c0,2.1700439-1.539978,13.1700439-3.5499878,27.0500488
			c-12.4199829-10.0400391-9.2299805-34.5,1.9799805-39.6900024
			C206.895462,338.0205994,207.4854279,342.6506042,207.4854279,343.8005676z"/>
		<g>
			<g>
				<path fill="#1A2D3C" d="M182.8168945,433.3544922c-0.019043,0-0.0385742-0.0009766-0.0585938-0.0029297
					c-0.2744141-0.0322266-0.4707031-0.28125-0.4384766-0.5546875l9.9711914-85.3525391l-25.9335938-128.4716797
					c-0.0546875-0.2705078,0.1206055-0.5341797,0.3911133-0.5888672c0.2753906-0.0546875,0.5351563,0.1210938,0.5893555,0.3916016
					l25.9492188,128.5488281c0.0102539,0.0517578,0.0126953,0.1044922,0.0063477,0.15625l-9.9804688,85.4316406
					C183.2832031,433.1669922,183.0673828,433.3544922,182.8168945,433.3544922z"/>
			</g>
			<g>
				<path fill="#1A2D3C" d="M165.4790039,357.1884766c-0.2080078,0-0.4023438-0.1308594-0.4731445-0.3378906
					c-0.0893555-0.2617188,0.050293-0.5458984,0.3115234-0.6347656c0.9506836-0.3251953,23.3413086-7.96875,28.324707-8.8476563
					c0.2719727-0.0537109,0.53125,0.1337891,0.5791016,0.4052734c0.0483398,0.2714844-0.1333008,0.53125-0.4052734,0.5791016
					c-4.9077148,0.8662109-27.9428711,8.7294922-28.175293,8.8085938
					C165.5869141,357.1796875,165.5327148,357.1884766,165.4790039,357.1884766z"/>
			</g>
			<g>
				<path fill="#1A2D3C" d="M169.3041992,359.5429688c-0.2167969,0-0.4160156-0.1416016-0.4799805-0.359375
					c-0.0776367-0.265625,0.074707-0.5429688,0.3393555-0.6201172l24.1308594-7.0625
					c0.2651367-0.0791016,0.5429688,0.0742188,0.6206055,0.3388672c0.0776367,0.265625-0.074707,0.5429688-0.3393555,0.6201172
					l-24.1308594,7.0625C169.3979492,359.5361328,169.3505859,359.5429688,169.3041992,359.5429688z"/>
			</g>
			<g>
				<path fill="#1A2D3C" d="M203.8969727,336.5244141c-0.1484375,0-0.2949219-0.0654297-0.3935547-0.1914063l-2.9169922-3.7128906
					c-0.1708984-0.2167969-0.1328125-0.53125,0.0839844-0.7021484c0.2182617-0.1689453,0.5317383-0.1328125,0.7021484,0.0849609
					l2.9169922,3.7128906c0.1708984,0.2167969,0.1328125,0.53125-0.0839844,0.7021484
					C204.1137695,336.4892578,204.0048828,336.5244141,203.8969727,336.5244141z"/>
			</g>
			<g>
				<path fill="#1A2D3C" d="M202.0395508,338.1162109c-0.0952148,0-0.1914063-0.0273438-0.2768555-0.0839844l-3.1826172-2.1220703
					c-0.2299805-0.1533203-0.2919922-0.4638672-0.1386719-0.6933594c0.1523438-0.2304688,0.4624023-0.2919922,0.6933594-0.1386719
					l3.1826172,2.1220703c0.2299805,0.1533203,0.2919922,0.4638672,0.1386719,0.6933594
					C202.3598633,338.0380859,202.2011719,338.1162109,202.0395508,338.1162109z"/>
			</g>
			<g>
				<path fill="#1A2D3C" d="M197.5317383,367.0244141c-0.1279297,0-0.2558594-0.0488281-0.3535156-0.1464844
					c-0.1953125-0.1953125-0.1953125-0.5117188,0-0.7070313l3.1821289-3.1826172
					c0.1953125-0.1953125,0.5117188-0.1953125,0.7070313,0s0.1953125,0.5117188,0,0.7070313l-3.1821289,3.1826172
					C197.7875977,366.9755859,197.659668,367.0244141,197.5317383,367.0244141z"/>
			</g>
		</g>
		<g>
			<g>
				<path fill="#8B4D41" d="M168.0658264,453.797821c0.7638855-4.3920593,18.8011169,2.3417664,18.8011169,2.3417664
					s9.842453,38.9049072,11.3701324,41.1963806c1.5276642,2.2914734,7.4473267,9.1658936,10.8845367,11.648407
					c3.4372101,2.4823608,2.6734009,4.9647217-9.7388,3.2462158c-12.4122162-1.7186279-31.6988373-31.8898621-31.6988373-31.8898621
					S167.3020325,458.1898804,168.0658264,453.797821z"/>
				<g>
					<path fill="#E09433" d="M162.5271759,516.0441895h10.3586731c0.2834015-5.9007568,1.1595001-16.4398193,3.7749634-16.4398193
						c2.9503632,0,5.1277466,11.9304504,5.8492432,16.4398193h36.1263733l-17.9214935-18.5140991
						c0,0-1.7135773,1.5203552-3.8135681,1.713501c-1.3270721,0.1160583-7.9493866-11.1057434-14.0048218-20.2146912
						c-3.5558777-5.3468323-6.9314423-9.9721069-8.9156036-11.105896
						c-5.346756-3.0534668-10.1137848-0.9533691-10.8739777,5.9265442
						C162.3339691,480.7167358,162.5271759,516.0441895,162.5271759,516.0441895z"/>
					<path fill="#C27D33" d="M185.9500885,516.0441895h32.6863403l-17.9214935-18.5140991
						c0,0-1.7135773,1.5203552-3.8135681,1.713501c-1.3270721,0.1160583-7.9493866-11.1057434-14.0048218-20.2146912
						c3.5946503,9.3794556,6.7254181,15.8085022,7.6788025,24.6982422
						C191.1293488,508.9451599,188.8102722,513.0550537,185.9500885,516.0441895z"/>
				</g>
			</g>
			<g>
				<polygon fill="#82BE9B" points="156.913208,436.7182007 158.2144165,459.6644287 168.9466858,459.9349365 
					198.7341461,460.6822815 200.9759216,439.7073364 201.3496094,436.1384888 				"/>
				<path fill="#5B8A72" d="M168.9466858,459.9349365l29.7874603,0.747345l2.2417755-20.9749451
					c-5.3725433,0.4252625-18.9391937,2.782959-18.9391937,2.782959S176.6512909,454.1500854,168.9466858,459.9349365z"/>
				<g>
					<path fill="#1A2D3C" d="M185.5322266,459.0410156c-0.0180664,0-0.0361328-0.0009766-0.0546875-0.0029297
						c-0.2744141-0.0302734-0.4726563-0.2763672-0.4428711-0.5517578l2.2333984-20.453125
						c0.0297852-0.2744141,0.2700195-0.4746094,0.5512695-0.4423828c0.2744141,0.0302734,0.4726563,0.2763672,0.4428711,0.5517578
						l-2.2333984,20.453125C186.0009766,458.8515625,185.7841797,459.0410156,185.5322266,459.0410156z"/>
				</g>
				<g>
					<path fill="#1A2D3C" d="M180.5952148,455.6328125c-0.019043,0-0.0380859-0.0009766-0.0571289-0.0029297
						c-0.2744141-0.03125-0.4716797-0.2792969-0.4399414-0.5537109l1.7631836-15.3994141
						c0.0307617-0.2744141,0.2788086-0.4677734,0.5532227-0.4404297c0.2744141,0.03125,0.4716797,0.2792969,0.4399414,0.5537109
						l-1.7631836,15.3994141C181.0625,455.4443359,180.8461914,455.6328125,180.5952148,455.6328125z"/>
				</g>
			</g>
		</g>
	</g>
</g>
<g id="HEAD">
	<g>
		<g>
			<path fill="#8B4D41" d="M122.6218948,68.1124573c0.4638748,0.721489,0.979187,1.3527832,1.5331802,1.9067841l0.05159,0.0515823
				c4.5093384,4.3031616,9.1990814,4.7025604,12.4457703,2.7184753c1.6877747-1.0177917,2.9890594-2.679863,3.6847534-4.7670441
				c1.4172668-4.2387543,1.7006836-11.4021759-1.623291-16.1950073v-0.0128212
				c-1.4687805-2.1516571-3.684845-3.8007507-6.8285065-4.509346
				C119.491127,44.4963303,117.6230316,60.3821449,122.6218948,68.1124573z"/>
			<path fill="#1A2D3C" d="M124.1550751,69.0143433c-0.0128174,0.3478851-0.0128174,0.6828003,0,1.0048981l0.05159,0.0515823
				c4.5093384,4.3031616,9.1990814,4.7025604,12.4457703,2.7184753c-2.9761658-0.979187-4.4706726-3.0921555-5.4112396-6.4161301
				C130.0688019,62.2245255,124.5673676,60.5496407,124.1550751,69.0143433z"/>
			<path fill="#1A2D3C" d="M144.2716827,53.5801659c-1.6187744-5.2969971-9.0545044-5.4830322-10.0049438-5.4805298
				c-0.2052002-0.0927734-0.4191284-0.177063-0.6349487-0.2597656c-1.3735962-0.6334839-2.9550781-0.9497681-4.7523804-0.8555298
				c-0.6486816,0.0157471-1.2584305,0.0930176-1.8312454,0.2254028c-7.3325806,1.3641357-8.9412003,8.4502296-7.5419693,14.4277916
				c0.3578491,2.4255371,1.9136734,4.6225586,3.114296,6.4786377c4.0518188,0.8075562,10.3389053,0.2426529,10.3389053,0.2426529
				c1.9910889-3.3557129,3.4824219-9.2022476,3.4824219-9.2022476c0.0172729-0.0250244,0.0285034-0.0487061,0.0455322-0.0736694
				c0.2411499,0.0543213,1.0816956,1.7137299,1.3504333,1.7692108c1.8800049,0.3900146,2.3838501-3.7619438,2.3838501-3.7619438
				s0,0,0.0100098,0.0100098C140.5316315,57.200161,145.9516754,59.0901756,144.2716827,53.5801659z"/>
			<path fill="#8B4D41" d="M134.9431305,66.2254486c0.9182892,1.008316,3.4268799,1.1053085,3.0654602-3.9829369
				s-2.7127075-4.2748032-2.7127075-4.2748032s-1.4251556,0.060318-1.566452,3.7580261
				C133.58815,65.423439,134.9431305,66.2254486,134.9431305,66.2254486z"/>
		</g>
		<path fill="#BA233E" d="M125.7477417,47.9870758c3.1903992,1.1551437,2.9601288,8.0638084-2.1435471,7.6555138
			S119.8274765,45.8435326,125.7477417,47.9870758z"/>
		<path fill="#1A2D3C" d="M115.8348846,44.7344627c11.5050812,1.7550278,9.1490173,10.2151222,4.3389359,10.5948524
			c-9.0920181,0.7177696-0.4636383,12.7962494-7.6698227,22.8165131S83.7974014,87.674202,79.581192,72.7260284
			c0,0,16.3333359,5.1952515,19.294426-10.5523376C101.3997421,48.749939,108.2374115,43.5755196,115.8348846,44.7344627z"/>
	</g>
</g>
<g id="BODY">
	<g>
		<polygon fill="#8B4D41" points="133.3830109,81.9694061 134.4754181,68.4659424 123.8958359,68.3588257 121.9010773,81.9694061 		
			"/>
		<path fill="#BA233E" d="M110.3565979,89.0733337l16.0790253,0.7858963l16.0661316,0.7858963
			c0,0-1.3527985-6.9057236-2.3576965-8.6708069c-0.6313019-1.1337814-5.1278229-2.1902695-10.4616852-2.757164
			c-3.0148544-0.3349915-6.3002167-0.5024872-9.3021774-0.4508972
			C112.0829926,78.907959,111.5032043,82.0516205,110.3565979,89.0733337z"/>
		<path fill="#8F2429" d="M126.4356232,89.85923l16.0661316,0.7858963c0,0-1.3527985-6.9057236-2.3576965-8.6708069
			c-0.6313019-1.1337814-5.1278229-2.1902695-10.4616852-2.757164
			C129.8111877,83.468811,128.3810883,87.1922684,126.4356232,89.85923z"/>
		<path fill="#BA233E" d="M72.0013428,221.0168457c0,0,4.5608597,10.0751801,28.9371643,18.4238892l13.2574539-21.0006714
			l13.9016495,24.453537c7.5757141-0.8245087,17.9729919-2.5122986,29.0144653-5.9394379
			c12.8451538-3.9553528,26.5278778-10.2554932,37.6594696-20.2791748l-24.363327-51.3679199
			c0,0,14.6875458-23.358429,15.0225372-28.3573608c0.2576904-3.7620697-4.7798615-24.8400345-7.2922211-35.0956116
			c-0.8374939-3.4013519-1.3914795-5.6044464-1.3914795-5.6044464s-24.3504333-9.0058746-52.7078094-9.6757813
			c-28.3573761-0.6699829-49.705925,12.3426743-49.705925,12.3426743s2.679863,19.7509689,8.7481079,41.57621
			c2.4865723,8.9929047,5.565834,18.3466034,9.2634888,26.8112946
			C92.3449173,167.3040466,73.9983215,201.6652679,72.0013428,221.0168457z"/>
		<g>
			<g>
				<path fill="#DDB987" d="M85.83815,89.5187759c2.8237305-0.3614731,5.6345673-0.6410675,8.435791-1.159584
					c2.6757202-0.4953003,5.896225-0.4916534,8.2532578-1.8960495c0.4412918-0.2629318,0.337059-0.9195786-0.1396103-1.0681915
					c-2.515976-0.7844162-5.6197357,0.1078415-8.1428528,0.6163254c-3.0219574,0.6090088-5.7604523,1.6916428-8.556488,2.9540405
					C85.4277496,89.0829239,85.5493317,89.555748,85.83815,89.5187759L85.83815,89.5187759z"/>
			</g>
			<g>
				<path fill="#DDB987" d="M141.7359619,73.4377213c-0.2231293,1.0894012-0.4871216,2.0084-0.5480957,3.135582
					c-0.0519867,0.9609528-0.2705841,2.0558701,0.5126495,2.7551041c0.2984161,0.2664185,0.8063812,0.3279648,1.0974884,0
					c0.6851501-0.7718735,0.4461975-1.5893707,0.3529358-2.5543823c-0.0512543-0.5304108-0.0519409-1.0796967-0.1303711-1.6059418
					c-0.081543-0.5472107-0.2895203-1.0540161-0.3624573-1.6055603
					C142.5955505,73.0894318,141.8529968,72.8663254,141.7359619,73.4377213L141.7359619,73.4377213z"/>
			</g>
			<g>
				<path fill="#DDB987" d="M143.1101074,82.553093c0.9228973,1.2847061,0.8625641,2.7635422,2.1290741,3.7524872
					c2.2626648,1.766777,8.799408,1.3123703,11.4394379,1.5802689c9.4509735,0.9590454,20.1226654,2.0388794,27.59021,8.7052765
					c1.0187531,0.9094467,2.5294342-0.5932922,1.5039673-1.5039749c-4.9302216-4.3783798-12.8991241-7.3475342-19.3616638-8.2972794
					c-7.1666107-1.0532074-17.3842468,0.5462036-22.7292175-4.6779709
					C143.3973389,81.8337631,142.8611145,82.2064743,143.1101074,82.553093L143.1101074,82.553093z"/>
			</g>
			<g>
				<path fill="#FFFFFF" d="M180.2134094,177.350174c2.403595,6.651413,5.472168,13.0541992,8.4999695,19.4390106
					c2.9387207,6.1969604,5.5999298,13.4633179,10.0353851,18.7493591c0.6522522,0.7773438,1.9383392-0.056427,1.6653748-0.9694366
					c-1.8943024-6.3361206-6.1063232-12.3088837-9.1864777-18.1448822
					c-3.4107971-6.4624939-6.5546722-13.079483-10.1737061-19.428421
					C180.8027191,176.5550537,180.0323181,176.8490448,180.2134094,177.350174L180.2134094,177.350174z"/>
			</g>
			<g>
				<path fill="#DDB987" d="M199.6031342,221.6549835c-0.908432,0.6598663-1.8168793,1.3197479-2.7253113,1.9796143
					c-0.8014069,0.5821381-1.8112946,1.1114807-2.279953,2.0109253c-0.3141174,0.6028595,0.2022705,1.2757721,0.8655853,1.1259308
					c0.9868164-0.2229156,1.7634277-1.0683594,2.528595-1.6927795c0.8698578-0.7098694,1.7397156-1.4197388,2.6095734-2.1296234
					C201.319046,222.3635712,200.3614502,221.1041565,199.6031342,221.6549835L199.6031342,221.6549835z"/>
			</g>
		</g>
		<path fill="#8F2429" d="M83.0814285,140.4927521c2.4865723,8.9929047,5.565834,18.3466034,9.2634888,26.8112946
			c0,0,19.02948,4.2516632,42.1689072,19.9957733c16.7103119,11.3635712,21.4386749,32.9053345,22.5982513,49.6543427
			c5.1277466-1.5846863,10.3843842-3.5301666,15.5508118-5.9394379c7.8076172-3.633255,15.421936-8.3101044,22.1086578-14.3397369
			l-24.363327-51.3679199c0,0,14.6875458-23.358429,15.0225372-28.3573608
			c0.0901947-1.2497101-0.4122925-4.3805542-1.1981964-8.4131165c-1.59758-8.1168976-4.4191437-19.8282776-6.0940247-26.6824951
			c-15.9889069,3.2724686-26.0898132,30.856842-35.6367798,48.0696564
			C133.2254333,166.67276,100.6937103,159.0712585,83.0814285,140.4927521z"/>
		<path fill="#6D1C20" d="M153.1696167,170.2158203c-0.283493,6.441925,13.1801605,30.8310394,19.4932709,60.7989044
			c7.8076172-3.633255,15.421936-8.3101044,22.1086578-14.3397369l-24.363327-51.3679199
			c0,0,14.6875458-23.358429,15.0225372-28.3573608c0.0901947-1.2497101-0.4122925-4.3805542-1.1981964-8.4131165
			l-20.9104614-3.3884659C160.3330383,136.795105,153.4659119,163.3358002,153.1696167,170.2158203z"/>
		<g>
			<path fill="#1A2D3C" d="M123.7983398,169.3828125c-0.2211914,0-0.4233398-0.1474609-0.4829102-0.3720703
				c-0.4135742-1.5605469-10.1337891-38.3408203-10.887207-48.6347656
				c-0.7553711-10.3232422,3.2583008-27.5361328,3.2988281-27.7089844c0.0629883-0.2695313,0.3334961-0.4394531,0.6015625-0.3720703
				c0.2685547,0.0625,0.4350586,0.3320313,0.3720703,0.6005859c-0.0405273,0.171875-4.019043,17.2382813-3.2753906,27.4082031
				c0.7470703,10.2001953,10.7558594,48.0693359,10.8569336,48.4511719
				c0.0708008,0.2666016-0.0883789,0.5410156-0.3554688,0.6113281
				C123.8837891,169.3779297,123.8408203,169.3828125,123.7983398,169.3828125z"/>
		</g>
		<g>
			<path fill="#1A2D3C" d="M115.4550781,214.3867188c-0.0644531,0-0.1293945-0.0126953-0.1923828-0.0380859
				c-0.2548828-0.1064453-0.3754883-0.3994141-0.269043-0.6542969c3.7290039-8.9501953,9.2695313-38.0390625,9.3251953-38.3310547
				c0.0507813-0.2724609,0.3095703-0.4511719,0.5844727-0.3984375c0.2709961,0.0517578,0.4492188,0.3134766,0.3979492,0.5839844
				c-0.2275391,1.2001953-5.6157227,29.4833984-9.3847656,38.5302734
				C115.8364258,214.2714844,115.6508789,214.3867188,115.4550781,214.3867188z"/>
		</g>
		<g>
			<path fill="#1A2D3C" d="M130.6245117,175.1972656c-0.2275391,0-0.4335938-0.15625-0.4868164-0.3876953
				c-0.0620117-0.2685547,0.105957-0.5371094,0.375-0.5996094c6.4560547-1.4892578,23.5107422-8.7480469,23.6821289-8.8212891
				c0.2548828-0.109375,0.5478516,0.0107422,0.65625,0.2636719c0.1083984,0.2539063-0.0097656,0.5478516-0.2636719,0.65625
				c-0.7036133,0.2998047-17.3085938,7.3662109-23.8500977,8.8759766
				C130.699707,175.1933594,130.6616211,175.1972656,130.6245117,175.1972656z"/>
		</g>
		<g>
			<path fill="#1A2D3C" d="M118.7426758,175.1972656c-0.0400391,0-0.0810547-0.0048828-0.121582-0.0146484
				c-0.1621094-0.0410156-16.3012695-4.0878906-23.8305664-7.1005859c-0.2563477-0.1025391-0.3813477-0.3935547-0.2788086-0.6494141
				c0.1025391-0.2568359,0.3955078-0.3808594,0.6499023-0.2783203c7.4667969,2.9863281,23.5405273,7.0175781,23.7016602,7.0576172
				c0.2680664,0.0673828,0.4311523,0.3388672,0.3637695,0.6064453
				C119.1704102,175.0458984,118.9667969,175.1972656,118.7426758,175.1972656z"/>
		</g>
	</g>
</g>
<g id="RIGHT_ARM">
	<g>
		<g>
			<path fill="#8B4D41" d="M307.2206726,187.069458c-0.1119995,2.0907898-2.0441284,8.6152344-3.2575073,11.5274048
				c-0.3359985,0.7746735-0.6066589,1.2973633-0.7840271,1.4187012c-0.830719,0.5600739-2.9215088,0.8400879-2.9215088,0.8400879
				l-13.6461487-7.5231323c0,0-5.1523438,3.7615356-8.0738525,4.0415955
				c-2.9308472,0.280014-8.4938049-4.0415955-8.4938049-4.0415955l-1.5307922-20.8799133
				c0,0,17.1183472-9.8939667,19.3491516-9.3338928C290.0930176,163.6787262,307.3607178,184.428009,307.2206726,187.069458z"/>
			<path fill="#733830" d="M303.9631653,198.5968628c-0.3359985,0.7746735-0.6066589,1.2973633-0.7840271,1.4187012
				c-0.830719,0.5600739-2.9215088,0.8400879-2.9215088,0.8400879l-13.6461487-7.5231323
				c0,0-5.1523438,3.7615356-8.0738525,4.0415955c-2.9308472,0.280014-8.4938049-4.0415955-8.4938049-4.0415955
				l-1.5307922-20.8799133c8.3538513,2.0814362,11.9660645,16.8476715,11.9660645,16.8476715l7.9431763-0.7000427
				C288.4222717,188.600235,298.7641602,198.0274506,303.9631653,198.5968628z"/>
			<g>
				<path fill="#1A2D3C" d="M289.2558594,186.1777344c-0.1279297,0-0.2558594-0.0488281-0.3535156-0.1464844
					c-0.1953125-0.1953125-0.1953125-0.5117188,0-0.7070313c1.5732422-1.5732422,1.1054688-2.5400391,0.4584961-3.8779297
					c-0.5869141-1.2138672-1.3178711-2.7246094,0.0410156-4.6865234c1.0498047-1.5166016,0.6040039-1.9482422-0.0126953-2.5458984
					c-0.6464844-0.6269531-1.5322266-1.484375-0.1108398-3.3232422c0.4570313-0.5917969,0.6088867-1.1650391,0.4648438-1.7509766
					c-0.34375-1.3984375-2.3276367-2.5820313-3.0634766-2.9199219c-0.2504883-0.1152344-0.3608398-0.4121094-0.2451172-0.6630859
					c0.1147461-0.25,0.409668-0.3613281,0.6630859-0.2451172c0.1254883,0.0576172,3.0883789,1.4404297,3.6166992,3.5888672
					c0.21875,0.8896484,0.0014648,1.7646484-0.6450195,2.6015625c-0.8740234,1.1318359-0.5766602,1.4199219,0.015625,1.9931641
					c0.6655273,0.6455078,1.671875,1.6201172,0.1391602,3.8330078c-1.0268555,1.4833984-0.5336914,2.5029297,0.0371094,3.6826172
					c0.6674805,1.3798828,1.4238281,2.9443359-0.6518555,5.0205078
					C289.5117188,186.1289063,289.3837891,186.1777344,289.2558594,186.1777344z"/>
			</g>
			<g>
				<path fill="#1A2D3C" d="M302.9013672,194.6708984c-0.1347656,0-0.2685547-0.0537109-0.3671875-0.1601563l-8.4936523-9.1894531
					c-0.1875-0.203125-0.1748047-0.5195313,0.027832-0.7070313c0.2016602-0.1875,0.5185547-0.1757813,0.706543,0.0273438
					l8.4936523,9.1894531c0.1875,0.203125,0.1748047,0.5195313-0.0273438,0.7070313
					C303.1445313,194.6269531,303.0224609,194.6708984,302.9013672,194.6708984z"/>
			</g>
			<g>
				<path fill="#1A2D3C" d="M304.4335938,188.265625c-0.1376953,0-0.2744141-0.0566406-0.3730469-0.1669922l-9.3295898-10.4433594
					c-0.1835938-0.2060547-0.1660156-0.5214844,0.0400391-0.7060547c0.2050781-0.1835938,0.5219727-0.1660156,0.7060547,0.0400391
					l9.3295898,10.4433594c0.1835938,0.2060547,0.1660156,0.5214844-0.0400391,0.7060547
					C304.6708984,188.2236328,304.5527344,188.265625,304.4335938,188.265625z"/>
			</g>
		</g>
		<g>
			<path fill="#BA233E" d="M271.6212463,198.3728485c0,0-27.4510193,4.3308868-41.5358429,0
				c-9.0259094-2.7721863-32.7246857-21.8600159-49.9177094-38.2503357
				c-9.6419373-9.1938629-17.2396851-17.5477142-19.0597992-21.7013092
				c-5.05896-11.5553741-1.0547333-44.634697,14.4581909-42.1798782
				c12.0874176,1.9134369,57.0487671,62.0424271,57.0487671,62.0424271l36.4768829,9.7539368
				c0,0,5.7216797,5.5536194,6.5150452,14.4675446C276.0081177,187.0227966,275.1494141,192.4084778,271.6212463,198.3728485z"/>
			<g>
				<g>
					<path fill="#DDB987" d="M188.2744904,100.837471c1.3825684,0.8999939,2.6118622,2.0737534,3.7527924,3.261795
						c0.9489441,0.988121,1.7551117,2.5076981,3.0990143,2.9471664c0.510437,0.1669159,0.987793-0.2745895,1.0066071-0.7667999
						c0.0623932-1.6324081-1.7105865-3.0915375-2.8733978-4.0253525c-1.3845062-1.1118546-2.8952179-1.8263016-4.5346832-2.4850006
						C188.0847778,99.5121231,187.7468719,100.4940109,188.2744904,100.837471L188.2744904,100.837471z"/>
				</g>
				<g>
					<path fill="#DDB987" d="M201.1724243,112.9638443c4.6567078,7.9774323,12.208313,14.1124344,18.032608,21.2185593
						c5.5826874,6.8113556,10.1810608,14.3307495,15.9281158,21.055542
						c0.8505249,0.9952393,2.2814636-0.4471893,1.4362183-1.4362183
						c-5.7477722-6.725647-10.2736359-14.3108063-15.8739166-21.1097565
						c-5.6494751-6.8586502-12.0492249-14.778038-19.2739716-19.9771881
						C201.2680969,112.6044006,201.085968,112.8157349,201.1724243,112.9638443L201.1724243,112.9638443z"/>
				</g>
				<g>
					<path fill="#FFFFFF" d="M240.8860321,157.7092896c5.4447174,2.2910309,11.656311,3.2476654,17.3955231,4.6067352
						c4.8862,1.157074,9.883667,2.6455841,14.9431152,2.547226c1.0835266-0.0210571,1.4293518-1.8002777,0.2674255-1.9760284
						c-10.7217102-1.6217041-21.6891632-5.4956055-32.4965363-5.9871674
						C240.490387,156.8770905,240.4924011,157.5436554,240.8860321,157.7092896L240.8860321,157.7092896z"/>
				</g>
				<g>
					<path fill="#DDB987" d="M276.4186096,164.2388611c1.2220764-0.1141815,2.4334412-0.2194824,3.6318359-0.4994659
						c0.9813843-0.2292938,2.3330078-0.4328003,2.7715454-1.450531c0.1268921-0.2945099,0.1091919-0.7016907-0.2268677-0.8651581
						c-0.9831543-0.4782715-1.8856201,0.0318146-2.8455505,0.4029236c-1.1601868,0.4485168-2.3017883,0.9537048-3.4710388,1.3771667
						C275.7608643,163.3912811,275.7857666,164.2980042,276.4186096,164.2388611L276.4186096,164.2388611z"/>
				</g>
				<g>
					<path fill="#DDB987" d="M286.6455994,160.838028c3.7608337-0.3562775,7.6415405,4.2658539,10.1628113,6.6453552
						c2.4920044,2.3519135,4.9694214,4.7197418,7.460144,7.0733032c6.0934448,5.7578583,7.5829163,10.7191925,5.5145264,18.7343903
						c-0.3222351,1.2487488,1.4130249,1.9975433,2.0838623,0.8785248c4.1072693-6.8514862,0.6066589-14.9470367-4.611145-19.9957581
						c-3.7505493-3.6290131-7.5602722-7.3451691-11.7024841-10.5286407
						c-2.6729126-2.0542297-5.5337219-4.5460205-8.9994202-3.4846649
						C286.1992188,160.2691498,286.2424316,160.8762207,286.6455994,160.838028L286.6455994,160.838028z"/>
				</g>
				<g>
					<path fill="#DDB987" d="M199.7150574,185.9621277c13.8511047,13.7958832,34.6729584,26.8566437,55.1934814,22.5449066
						c1.625885-0.341629,0.8947296-2.6616974-0.6723938-2.4389801
						c-20.3597565,2.8934784-38.5171051-9.0463562-53.8941345-20.9184875
						C199.8698578,184.7850189,199.3091736,185.5578613,199.7150574,185.9621277L199.7150574,185.9621277z"/>
				</g>
				<g>
					<path fill="#DDB987" d="M265.0135498,207.2291107c3.0140381-0.4759064,6.509491-0.49086,9.3557129-1.6517792
						c0.72995-0.2977295,0.7112732-1.4763184-0.1986694-1.4679108c-3.1480408,0.0291138-6.3992615,1.3750458-9.4321289,2.121933
						C264.0785217,206.3938599,264.3709412,207.3305817,265.0135498,207.2291107L265.0135498,207.2291107z"/>
				</g>
			</g>
			<path fill="#8F2429" d="M271.6212463,198.3728485c0,0-27.4510193,4.3308868-41.5358429,0
				c-9.0259094-2.7721863-32.7246857-21.8600159-49.9177094-38.2503357
				c10.2672882,8.0458069,32.3045959,24.0254364,47.3508911,25.6962433
				c16.4463196,1.8294067,37.1768799-0.4387207,48.0881958-3.3135223
				C276.0081177,187.0227966,275.1494141,192.4084778,271.6212463,198.3728485z"/>
			<path fill="#CE5D79" d="M241.2953644,186.4721375c-0.5600128,4.9655762-4.601593,8.5217896-11.6486816,6.188324
				c-8.2138214-2.7161407-12.2833862-6.4590454-13.7394714-10.1272583
				c-2.7161865-6.8230743,3.565506-13.4221497,8.8858337-12.7874451
				C236.8617706,171.1738739,242.0140991,180.0130463,241.2953644,186.4721375z"/>
			<path fill="#BA233E" d="M241.2953644,186.4721375c-0.5600128,4.9655762-4.601593,8.5217896-11.6486816,6.188324
				c-8.2138214-2.7161407-12.2833862-6.4590454-13.7394714-10.1272583c4.0975494,1.6987762,8.0458221,2.8934784,11.6113739,3.285553
				C231.8961334,186.3040771,236.5724182,186.5001068,241.2953644,186.4721375z"/>
			<g>
				<path fill="#1A2D3C" d="M220.828125,172.4384766c-0.2138672,0-0.4116211-0.1376953-0.4780273-0.3525391l-1.0649414-3.4599609
					c-0.0810547-0.2646484,0.0668945-0.5439453,0.3310547-0.625c0.2631836-0.0859375,0.5439453,0.0664063,0.625,0.3300781
					l1.0649414,3.4599609c0.0810547,0.2646484-0.0668945,0.5439453-0.3310547,0.625
					C220.9262695,172.4316406,220.8764648,172.4384766,220.828125,172.4384766z"/>
			</g>
			<g>
				<path fill="#1A2D3C" d="M222.6914063,172.1728516c-0.2451172,0-0.4589844-0.1796875-0.4946289-0.4296875l-0.5327148-3.7275391
					c-0.0390625-0.2724609,0.1508789-0.5263672,0.4243164-0.5654297c0.2734375-0.0341797,0.5268555,0.1503906,0.565918,0.4248047
					l0.5327148,3.7275391c0.0390625,0.2724609-0.1508789,0.5263672-0.4243164,0.5654297
					C222.7387695,172.1708984,222.7148438,172.1728516,222.6914063,172.1728516z"/>
			</g>
			<g>
				<path fill="#1A2D3C" d="M241.0605469,193.4707031c-0.0922852,0-0.1855469-0.0253906-0.269043-0.0791016l-3.328125-2.1298828
					c-0.2324219-0.1484375-0.300293-0.4580078-0.1513672-0.6904297c0.1479492-0.2333984,0.456543-0.3027344,0.6904297-0.1513672
					l3.328125,2.1298828c0.2324219,0.1484375,0.300293,0.4580078,0.1513672,0.6904297
					C241.3867188,193.3896484,241.2255859,193.4707031,241.0605469,193.4707031z"/>
			</g>
			<g>
				
					<ellipse transform="matrix(0.3060984 -0.9519999 0.9519999 0.3060984 -7.7528434 375.6826172)" fill="#1A2D3C" cx="253.8328857" cy="193.1595764" rx="2.8985353" ry="2.898535"/>
				
					<ellipse transform="matrix(0.3060984 -0.9519999 0.9519999 0.3060984 0.0731806 386.8841553)" fill="#1A2D3C" cx="265.4299011" cy="193.3918762" rx="2.8985353" ry="2.898535"/>
			</g>
		</g>
	</g>
</g>
</svg>
